<svg width="800" height="600" xmlns="http://www.w3.org/2000/svg">
 <!-- Created with Method Draw - http://github.com/duopixel/Method-Draw/ -->

 <g>
  <title>background</title>
  <rect fill="#fff" id="canvas_background" height="602" width="802" y="-1" x="-1"/>
  <g display="none" overflow="visible" y="0" x="0" height="100%" width="100%" id="canvasGrid">
   <rect fill="url(#gridpattern)" stroke-width="0" y="0" x="0" height="100%" width="100%"/>
  </g>
 </g>
 <g>
  <title>Layer 1</title>
  <pattern transform="matrix(0.152587890625,0,0,0.152587890625,0,0) " y="512" width="69" viewBox="2.125 -70.896 69 69" patternUnits="userSpaceOnUse" id="svg_5" height="69">
   <g id="svg_7">
    <polygon id="svg_8" points="71.125,-1.896 2.125,-1.896 2.125,-70.896 71.125,-70.896   " fill="none"/>
    <polygon id="svg_9" points="71.125,-1.896 2.125,-1.896 2.125,-70.896 71.125,-70.896   " fill="#F6BB60"/>
    <g id="svg_10">
     <path id="svg_11" fill="#FFFFFF" d="m61.772,-71.653c0.018,0.072 0.007,0.127 -0.026,0.19c-0.053,0.101 -0.112,0.063 -0.165,0.128c-0.05,0.063 -0.099,0.276 -0.079,0.362c-0.169,0.058 -0.01,0.227 -0.015,0.35c-0.002,0.05 -0.041,0.105 -0.045,0.161c-0.01,0.119 0.017,0.266 0.068,0.37c0.097,0.198 0.268,0.413 0.435,0.544c0.19,0.148 0.365,0.572 0.608,0.631c0.177,0.042 0.384,-0.104 0.543,-0.143c0.18,-0.043 0.397,0.01 0.571,-0.053c0.222,-0.079 0.127,-0.337 0.288,-0.45c0.104,-0.074 0.287,-0.01 0.406,-0.051c0.2,-0.069 0.339,-0.263 0.376,-0.46c0.016,-0.082 0.01,-0.145 0.039,-0.221c0.039,-0.103 0.111,-0.16 0.09,-0.293c-0.01,-0.062 -0.052,-0.12 -0.064,-0.187c-0.022,-0.114 0.002,-0.224 0,-0.337c-0.003,-0.2 0.017,-0.379 -0.078,-0.55c-0.38,-0.688 -1.236,-0.929 -1.975,-0.789c-0.18,0.034 -0.287,0.126 -0.442,0.207c-0.17,0.088 -0.139,0.166 -0.318,0.224c-0.081,0.026 -0.216,0.124 -0.215,0.224c0.001,0.115 0.005,0.051 0.012,0.169c-0.021,0.011 -0.021,-0.005 -0.03,-0.025"/>
     <path id="svg_12" fill="#FFFFFF" d="m54.105,-71.653c0.018,0.072 0.007,0.127 -0.026,0.19c-0.053,0.101 -0.112,0.063 -0.165,0.128c-0.05,0.063 -0.099,0.276 -0.079,0.362c-0.169,0.058 -0.01,0.227 -0.015,0.35c-0.002,0.05 -0.041,0.105 -0.045,0.161c-0.01,0.119 0.017,0.266 0.068,0.37c0.097,0.198 0.268,0.413 0.435,0.544c0.19,0.148 0.365,0.572 0.608,0.631c0.177,0.042 0.384,-0.104 0.543,-0.143c0.18,-0.043 0.397,0.01 0.571,-0.053c0.222,-0.079 0.127,-0.337 0.288,-0.45c0.104,-0.074 0.287,-0.01 0.406,-0.051c0.2,-0.069 0.339,-0.263 0.376,-0.46c0.016,-0.082 0.01,-0.145 0.039,-0.221c0.039,-0.103 0.111,-0.16 0.09,-0.293c-0.01,-0.062 -0.052,-0.12 -0.064,-0.187c-0.022,-0.114 0.002,-0.224 0,-0.337c-0.003,-0.2 0.017,-0.379 -0.078,-0.55c-0.38,-0.688 -1.236,-0.929 -1.975,-0.789c-0.18,0.034 -0.287,0.126 -0.442,0.207c-0.17,0.088 -0.139,0.166 -0.318,0.224c-0.081,0.026 -0.216,0.124 -0.215,0.224c0.001,0.115 0.005,0.051 0.012,0.169c-0.021,0.011 -0.021,-0.005 -0.03,-0.025"/>
     <path id="svg_13" fill="#FFFFFF" d="m46.439,-71.653c0.018,0.072 0.007,0.127 -0.026,0.19c-0.053,0.101 -0.112,0.063 -0.165,0.128c-0.05,0.063 -0.099,0.276 -0.079,0.362c-0.169,0.058 -0.01,0.227 -0.015,0.35c-0.002,0.05 -0.041,0.105 -0.045,0.161c-0.01,0.119 0.017,0.266 0.068,0.37c0.097,0.198 0.268,0.413 0.435,0.544c0.19,0.148 0.365,0.572 0.608,0.631c0.177,0.042 0.384,-0.104 0.543,-0.143c0.18,-0.043 0.397,0.01 0.571,-0.053c0.222,-0.079 0.127,-0.337 0.288,-0.45c0.104,-0.074 0.287,-0.01 0.406,-0.051c0.2,-0.069 0.339,-0.263 0.376,-0.46c0.016,-0.082 0.01,-0.145 0.039,-0.221c0.039,-0.103 0.111,-0.16 0.09,-0.293c-0.01,-0.062 -0.052,-0.12 -0.064,-0.187c-0.022,-0.114 0.002,-0.224 0,-0.337c-0.003,-0.2 0.017,-0.379 -0.078,-0.55c-0.38,-0.688 -1.236,-0.929 -1.975,-0.789c-0.18,0.034 -0.287,0.126 -0.442,0.207c-0.17,0.088 -0.139,0.166 -0.318,0.224c-0.081,0.026 -0.216,0.124 -0.215,0.224c0.001,0.115 0.005,0.051 0.012,0.169c-0.021,0.011 -0.021,-0.005 -0.03,-0.025"/>
     <path id="svg_14" fill="#FFFFFF" d="m38.772,-71.653c0.018,0.072 0.007,0.127 -0.026,0.19c-0.053,0.101 -0.112,0.063 -0.165,0.128c-0.05,0.063 -0.099,0.276 -0.079,0.362c-0.169,0.058 -0.01,0.227 -0.015,0.35c-0.002,0.05 -0.041,0.105 -0.045,0.161c-0.01,0.119 0.017,0.266 0.068,0.37c0.097,0.198 0.268,0.413 0.435,0.544c0.19,0.148 0.365,0.572 0.608,0.631c0.177,0.042 0.384,-0.104 0.543,-0.143c0.18,-0.043 0.397,0.01 0.571,-0.053c0.222,-0.079 0.127,-0.337 0.288,-0.45c0.104,-0.074 0.287,-0.01 0.406,-0.051c0.2,-0.069 0.339,-0.263 0.376,-0.46c0.016,-0.082 0.01,-0.145 0.039,-0.221c0.039,-0.103 0.111,-0.16 0.09,-0.293c-0.01,-0.062 -0.052,-0.12 -0.064,-0.187c-0.022,-0.114 0.002,-0.224 0,-0.337c-0.003,-0.2 0.017,-0.379 -0.078,-0.55c-0.38,-0.688 -1.236,-0.929 -1.975,-0.789c-0.18,0.034 -0.287,0.126 -0.442,0.207c-0.17,0.088 -0.139,0.166 -0.318,0.224c-0.081,0.026 -0.216,0.124 -0.215,0.224c0.001,0.115 0.005,0.051 0.012,0.169c-0.021,0.011 -0.021,-0.005 -0.03,-0.025"/>
     <path id="svg_15" fill="#FFFFFF" d="m31.105,-71.653c0.018,0.072 0.007,0.127 -0.026,0.19c-0.053,0.101 -0.112,0.063 -0.165,0.128c-0.05,0.063 -0.099,0.276 -0.079,0.362c-0.169,0.058 -0.01,0.227 -0.015,0.35c-0.002,0.05 -0.041,0.105 -0.045,0.161c-0.01,0.119 0.017,0.266 0.068,0.37c0.097,0.198 0.268,0.413 0.435,0.544c0.19,0.148 0.365,0.572 0.608,0.631c0.177,0.042 0.384,-0.104 0.543,-0.143c0.18,-0.043 0.397,0.01 0.571,-0.053c0.222,-0.079 0.127,-0.337 0.288,-0.45c0.104,-0.074 0.287,-0.01 0.406,-0.051c0.2,-0.069 0.339,-0.263 0.376,-0.46c0.016,-0.082 0.01,-0.145 0.039,-0.221c0.039,-0.103 0.111,-0.16 0.09,-0.293c-0.01,-0.062 -0.052,-0.12 -0.064,-0.187c-0.022,-0.114 0.002,-0.224 0,-0.337c-0.003,-0.2 0.017,-0.379 -0.078,-0.55c-0.38,-0.688 -1.236,-0.929 -1.975,-0.789c-0.18,0.034 -0.287,0.126 -0.442,0.207c-0.17,0.088 -0.139,0.166 -0.318,0.224c-0.081,0.026 -0.216,0.124 -0.215,0.224c0.001,0.115 0.005,0.051 0.012,0.169c-0.021,0.011 -0.021,-0.005 -0.03,-0.025"/>
     <path id="svg_16" fill="#FFFFFF" d="m23.439,-71.653c0.018,0.072 0.007,0.127 -0.026,0.19c-0.053,0.101 -0.112,0.063 -0.165,0.128c-0.05,0.063 -0.099,0.276 -0.079,0.362c-0.169,0.058 -0.01,0.227 -0.015,0.35c-0.002,0.05 -0.041,0.105 -0.045,0.161c-0.01,0.119 0.017,0.266 0.068,0.37c0.097,0.198 0.268,0.413 0.435,0.544c0.19,0.148 0.365,0.572 0.608,0.631c0.177,0.042 0.384,-0.104 0.543,-0.143c0.18,-0.043 0.397,0.01 0.571,-0.053c0.222,-0.079 0.127,-0.337 0.288,-0.45c0.104,-0.074 0.287,-0.01 0.406,-0.051c0.2,-0.069 0.339,-0.263 0.376,-0.46c0.016,-0.082 0.01,-0.145 0.039,-0.221c0.039,-0.103 0.111,-0.16 0.09,-0.293c-0.01,-0.062 -0.052,-0.12 -0.064,-0.187c-0.022,-0.114 0.002,-0.224 0,-0.337c-0.003,-0.2 0.017,-0.379 -0.078,-0.55c-0.38,-0.688 -1.236,-0.929 -1.975,-0.789c-0.18,0.034 -0.287,0.126 -0.442,0.207c-0.17,0.088 -0.139,0.166 -0.318,0.224c-0.081,0.026 -0.216,0.124 -0.215,0.224c0.001,0.115 0.005,0.051 0.012,0.169c-0.021,0.011 -0.021,-0.005 -0.03,-0.025"/>
     <path id="svg_17" fill="#FFFFFF" d="m15.772,-71.653c0.018,0.072 0.007,0.127 -0.026,0.19c-0.053,0.101 -0.112,0.063 -0.165,0.128c-0.05,0.063 -0.099,0.276 -0.079,0.362c-0.169,0.058 -0.01,0.227 -0.015,0.35c-0.002,0.05 -0.041,0.105 -0.045,0.161c-0.01,0.119 0.017,0.266 0.068,0.37c0.097,0.198 0.268,0.413 0.435,0.544c0.19,0.148 0.365,0.572 0.608,0.631c0.177,0.042 0.384,-0.104 0.543,-0.143c0.18,-0.043 0.397,0.01 0.571,-0.053c0.222,-0.079 0.127,-0.337 0.288,-0.45c0.104,-0.074 0.287,-0.01 0.406,-0.051c0.2,-0.069 0.339,-0.263 0.376,-0.46c0.016,-0.082 0.01,-0.145 0.039,-0.221c0.039,-0.103 0.111,-0.16 0.09,-0.293c-0.01,-0.062 -0.052,-0.12 -0.064,-0.187c-0.022,-0.114 0.002,-0.224 0,-0.337c-0.003,-0.2 0.017,-0.379 -0.078,-0.55c-0.38,-0.688 -1.236,-0.929 -1.975,-0.789c-0.18,0.034 -0.287,0.126 -0.442,0.207c-0.17,0.088 -0.139,0.166 -0.318,0.224c-0.081,0.026 -0.216,0.124 -0.215,0.224c0.001,0.115 0.005,0.051 0.012,0.169c-0.021,0.011 -0.021,-0.005 -0.03,-0.025"/>
     <path id="svg_18" fill="#FFFFFF" d="m8.105,-71.653c0.018,0.072 0.007,0.127 -0.026,0.19c-0.053,0.101 -0.112,0.063 -0.165,0.128c-0.05,0.063 -0.099,0.276 -0.079,0.362c-0.169,0.058 -0.01,0.227 -0.015,0.35c-0.002,0.05 -0.041,0.105 -0.045,0.161c-0.01,0.119 0.017,0.266 0.068,0.37c0.097,0.198 0.268,0.413 0.435,0.544c0.19,0.148 0.365,0.572 0.608,0.631c0.177,0.042 0.384,-0.104 0.543,-0.143c0.18,-0.043 0.397,0.01 0.571,-0.053c0.222,-0.079 0.127,-0.337 0.288,-0.45c0.104,-0.074 0.287,-0.01 0.406,-0.051c0.2,-0.069 0.339,-0.263 0.376,-0.46c0.016,-0.082 0.01,-0.145 0.039,-0.221c0.039,-0.103 0.111,-0.16 0.09,-0.293c-0.01,-0.062 -0.052,-0.12 -0.064,-0.187c-0.022,-0.114 0.002,-0.224 0,-0.337c-0.003,-0.2 0.017,-0.379 -0.078,-0.55c-0.38,-0.688 -1.236,-0.929 -1.975,-0.789c-0.18,0.034 -0.287,0.126 -0.442,0.207c-0.17,0.088 -0.139,0.166 -0.318,0.224c-0.081,0.026 -0.216,0.124 -0.215,0.224c0.001,0.115 0.005,0.051 0.012,0.169c-0.021,0.011 -0.021,-0.005 -0.03,-0.025"/>
     <path id="svg_19" fill="#FFFFFF" d="m0.439,-71.653c0.018,0.072 0.008,0.127 -0.026,0.19c-0.052,0.101 -0.113,0.063 -0.165,0.128c-0.051,0.063 -0.099,0.276 -0.079,0.362c-0.169,0.058 -0.01,0.227 -0.015,0.35c-0.002,0.05 -0.041,0.105 -0.045,0.161c-0.01,0.119 0.017,0.266 0.068,0.37c0.097,0.198 0.268,0.413 0.435,0.544c0.19,0.148 0.365,0.572 0.608,0.631c0.177,0.042 0.384,-0.104 0.543,-0.143c0.18,-0.043 0.397,0.01 0.571,-0.053c0.222,-0.079 0.127,-0.337 0.288,-0.45c0.104,-0.074 0.287,-0.01 0.406,-0.051c0.2,-0.07 0.339,-0.263 0.376,-0.46c0.016,-0.082 0.01,-0.145 0.039,-0.221c0.038,-0.103 0.111,-0.16 0.09,-0.293c-0.01,-0.062 -0.051,-0.12 -0.064,-0.187c-0.021,-0.114 0.002,-0.224 0,-0.337c-0.003,-0.2 0.017,-0.379 -0.078,-0.55c-0.38,-0.688 -1.236,-0.929 -1.975,-0.789c-0.18,0.034 -0.287,0.126 -0.442,0.207c-0.17,0.088 -0.139,0.166 -0.318,0.224c-0.081,0.026 -0.215,0.124 -0.215,0.224c0.002,0.115 0.005,0.051 0.012,0.169c-0.021,0.011 -0.021,-0.005 -0.03,-0.025"/>
    </g>
    <g id="svg_20">
     <path id="svg_21" fill="#FFFFFF" d="m69.439,-71.653c0.018,0.072 0.008,0.127 -0.026,0.19c-0.052,0.101 -0.113,0.063 -0.165,0.128c-0.051,0.063 -0.099,0.276 -0.079,0.362c-0.169,0.058 -0.01,0.227 -0.015,0.35c-0.002,0.05 -0.041,0.105 -0.045,0.161c-0.01,0.119 0.017,0.266 0.068,0.37c0.097,0.198 0.268,0.413 0.435,0.544c0.19,0.148 0.365,0.572 0.608,0.631c0.177,0.042 0.384,-0.104 0.543,-0.143c0.18,-0.043 0.397,0.01 0.571,-0.053c0.222,-0.079 0.127,-0.337 0.288,-0.45c0.104,-0.074 0.287,-0.01 0.406,-0.051c0.2,-0.07 0.339,-0.263 0.376,-0.46c0.016,-0.082 0.01,-0.145 0.039,-0.221c0.038,-0.103 0.111,-0.16 0.09,-0.293c-0.01,-0.062 -0.051,-0.12 -0.064,-0.187c-0.021,-0.114 0.002,-0.224 0,-0.337c-0.003,-0.2 0.017,-0.379 -0.078,-0.55c-0.38,-0.688 -1.236,-0.929 -1.975,-0.789c-0.18,0.034 -0.287,0.126 -0.442,0.207c-0.17,0.088 -0.139,0.166 -0.318,0.224c-0.081,0.026 -0.215,0.124 -0.215,0.224c0.002,0.115 0.005,0.051 0.012,0.169c-0.021,0.011 -0.021,-0.005 -0.03,-0.025"/>
    </g>
    <path id="svg_22" fill="#FFFFFF" d="m0.495,-71.653c0.018,0.072 0.008,0.127 -0.026,0.19c-0.052,0.101 -0.113,0.063 -0.165,0.128c-0.051,0.063 -0.099,0.276 -0.079,0.362c-0.169,0.058 -0.01,0.227 -0.015,0.35c-0.002,0.05 -0.041,0.105 -0.045,0.161c-0.01,0.119 0.017,0.266 0.068,0.37c0.097,0.198 0.268,0.413 0.435,0.544c0.19,0.148 0.365,0.572 0.608,0.631c0.177,0.042 0.384,-0.104 0.543,-0.143c0.18,-0.043 0.397,0.01 0.571,-0.053c0.222,-0.079 0.127,-0.337 0.288,-0.45c0.104,-0.074 0.287,-0.01 0.406,-0.051c0.2,-0.07 0.339,-0.263 0.376,-0.46c0.016,-0.082 0.01,-0.145 0.039,-0.221c0.038,-0.103 0.111,-0.16 0.09,-0.293c-0.01,-0.062 -0.051,-0.12 -0.064,-0.187c-0.021,-0.114 0.002,-0.224 0,-0.337c-0.003,-0.2 0.017,-0.379 -0.078,-0.55c-0.38,-0.688 -1.236,-0.929 -1.975,-0.789c-0.18,0.034 -0.287,0.126 -0.442,0.207c-0.17,0.088 -0.139,0.166 -0.318,0.224c-0.081,0.026 -0.215,0.124 -0.215,0.224c0.003,0.116 0.006,0.052 0.013,0.17c-0.021,0.011 -0.021,-0.005 -0.03,-0.025"/>
    <g id="svg_23">
     <g id="svg_24">
      <path id="svg_25" fill="#FFFFFF" d="m69.439,-64.001c0.018,0.072 0.007,0.127 -0.026,0.19c-0.053,0.101 -0.112,0.063 -0.165,0.128c-0.05,0.063 -0.099,0.276 -0.079,0.362c-0.169,0.058 -0.01,0.227 -0.015,0.35c-0.002,0.05 -0.041,0.105 -0.045,0.161c-0.01,0.119 0.017,0.266 0.068,0.37c0.097,0.198 0.268,0.413 0.435,0.544c0.19,0.148 0.365,0.572 0.608,0.631c0.177,0.042 0.384,-0.104 0.543,-0.143c0.18,-0.043 0.397,0.01 0.571,-0.053c0.222,-0.079 0.127,-0.337 0.288,-0.45c0.104,-0.074 0.287,-0.01 0.406,-0.051c0.2,-0.069 0.339,-0.263 0.376,-0.46c0.016,-0.082 0.01,-0.145 0.039,-0.221c0.039,-0.103 0.111,-0.16 0.09,-0.293c-0.01,-0.062 -0.052,-0.12 -0.064,-0.187c-0.022,-0.114 0.002,-0.224 0,-0.337c-0.003,-0.2 0.017,-0.379 -0.078,-0.55c-0.38,-0.688 -1.236,-0.929 -1.975,-0.789c-0.18,0.034 -0.287,0.126 -0.442,0.207c-0.17,0.088 -0.139,0.166 -0.318,0.224c-0.081,0.026 -0.216,0.124 -0.215,0.224c0.001,0.115 0.005,0.051 0.012,0.169c-0.021,0.011 -0.021,-0.005 -0.03,-0.025"/>
      <path id="svg_26" fill="#FFFFFF" d="m61.778,-64.001c0.018,0.072 0.007,0.127 -0.026,0.19c-0.053,0.101 -0.112,0.063 -0.165,0.128c-0.05,0.063 -0.099,0.276 -0.079,0.362c-0.169,0.058 -0.009,0.227 -0.015,0.35c-0.002,0.05 -0.041,0.105 -0.045,0.161c-0.01,0.119 0.017,0.266 0.068,0.37c0.097,0.198 0.268,0.413 0.435,0.544c0.19,0.148 0.365,0.572 0.608,0.631c0.177,0.042 0.384,-0.104 0.543,-0.143c0.18,-0.043 0.397,0.01 0.571,-0.053c0.222,-0.079 0.127,-0.337 0.288,-0.45c0.104,-0.074 0.287,-0.01 0.406,-0.051c0.2,-0.069 0.339,-0.263 0.376,-0.46c0.016,-0.082 0.01,-0.145 0.039,-0.221c0.039,-0.103 0.111,-0.16 0.09,-0.293c-0.01,-0.062 -0.052,-0.12 -0.064,-0.187c-0.022,-0.114 0.002,-0.224 0,-0.337c-0.003,-0.2 0.017,-0.379 -0.078,-0.55c-0.38,-0.688 -1.236,-0.929 -1.975,-0.789c-0.18,0.034 -0.287,0.126 -0.442,0.207c-0.17,0.088 -0.139,0.166 -0.318,0.224c-0.081,0.026 -0.216,0.124 -0.215,0.224c0.001,0.115 0.005,0.051 0.012,0.169c-0.021,0.011 -0.021,-0.005 -0.03,-0.025"/>
      <path id="svg_27" fill="#FFFFFF" d="m54.118,-64.001c0.018,0.072 0.007,0.127 -0.026,0.19c-0.053,0.101 -0.112,0.063 -0.165,0.128c-0.05,0.063 -0.099,0.276 -0.079,0.362c-0.169,0.058 -0.009,0.227 -0.015,0.35c-0.002,0.05 -0.041,0.105 -0.045,0.161c-0.01,0.119 0.017,0.266 0.068,0.37c0.097,0.198 0.268,0.413 0.435,0.544c0.19,0.148 0.365,0.572 0.608,0.631c0.177,0.042 0.384,-0.104 0.543,-0.143c0.18,-0.043 0.397,0.01 0.571,-0.053c0.222,-0.079 0.127,-0.337 0.288,-0.45c0.104,-0.074 0.287,-0.01 0.406,-0.051c0.2,-0.069 0.339,-0.263 0.376,-0.46c0.016,-0.082 0.01,-0.145 0.039,-0.221c0.039,-0.103 0.111,-0.16 0.09,-0.293c-0.01,-0.062 -0.052,-0.12 -0.064,-0.187c-0.022,-0.114 0.002,-0.224 0,-0.337c-0.003,-0.2 0.017,-0.379 -0.078,-0.55c-0.38,-0.688 -1.236,-0.929 -1.975,-0.789c-0.18,0.034 -0.287,0.126 -0.442,0.207c-0.17,0.088 -0.139,0.166 -0.318,0.224c-0.081,0.026 -0.216,0.124 -0.215,0.224c0.001,0.115 0.005,0.051 0.012,0.169c-0.021,0.011 -0.021,-0.005 -0.03,-0.025"/>
      <path id="svg_28" fill="#FFFFFF" d="m46.458,-64.001c0.018,0.072 0.007,0.127 -0.026,0.19c-0.053,0.101 -0.112,0.063 -0.165,0.128c-0.05,0.063 -0.099,0.276 -0.079,0.362c-0.169,0.058 -0.009,0.227 -0.015,0.35c-0.002,0.05 -0.041,0.105 -0.045,0.161c-0.01,0.119 0.017,0.266 0.068,0.37c0.097,0.198 0.268,0.413 0.435,0.544c0.19,0.148 0.365,0.572 0.608,0.631c0.177,0.042 0.384,-0.104 0.543,-0.143c0.18,-0.043 0.397,0.01 0.571,-0.053c0.222,-0.079 0.127,-0.337 0.288,-0.45c0.104,-0.074 0.287,-0.01 0.406,-0.051c0.2,-0.069 0.339,-0.263 0.376,-0.46c0.016,-0.082 0.01,-0.145 0.039,-0.221c0.039,-0.103 0.111,-0.16 0.09,-0.293c-0.01,-0.062 -0.052,-0.12 -0.064,-0.187c-0.022,-0.114 0.002,-0.224 0,-0.337c-0.003,-0.2 0.017,-0.379 -0.078,-0.55c-0.38,-0.688 -1.236,-0.929 -1.975,-0.789c-0.18,0.034 -0.287,0.126 -0.442,0.207c-0.17,0.088 -0.139,0.166 -0.318,0.224c-0.081,0.026 -0.216,0.124 -0.215,0.224c0.001,0.115 0.005,0.051 0.012,0.169c-0.021,0.011 -0.021,-0.005 -0.03,-0.025"/>
      <path id="svg_29" fill="#FFFFFF" d="m38.797,-64.001c0.018,0.072 0.007,0.127 -0.026,0.19c-0.053,0.101 -0.112,0.063 -0.165,0.128c-0.05,0.063 -0.099,0.276 -0.079,0.362c-0.169,0.058 -0.009,0.227 -0.015,0.35c-0.002,0.05 -0.041,0.105 -0.045,0.161c-0.01,0.119 0.017,0.266 0.068,0.37c0.097,0.198 0.268,0.413 0.435,0.544c0.19,0.148 0.365,0.572 0.608,0.631c0.177,0.042 0.384,-0.104 0.543,-0.143c0.18,-0.043 0.397,0.01 0.571,-0.053c0.222,-0.079 0.127,-0.337 0.288,-0.45c0.104,-0.074 0.287,-0.01 0.406,-0.051c0.2,-0.069 0.339,-0.263 0.376,-0.46c0.016,-0.082 0.01,-0.145 0.039,-0.221c0.039,-0.103 0.111,-0.16 0.09,-0.293c-0.01,-0.062 -0.052,-0.12 -0.064,-0.187c-0.022,-0.114 0.002,-0.224 0,-0.337c-0.003,-0.2 0.017,-0.379 -0.078,-0.55c-0.38,-0.688 -1.236,-0.929 -1.975,-0.789c-0.18,0.034 -0.287,0.126 -0.442,0.207c-0.17,0.088 -0.139,0.166 -0.318,0.224c-0.081,0.026 -0.216,0.124 -0.215,0.224c0.001,0.115 0.005,0.051 0.012,0.169c-0.021,0.011 -0.021,-0.005 -0.03,-0.025"/>
      <path id="svg_30" fill="#FFFFFF" d="m31.137,-64.001c0.018,0.072 0.007,0.127 -0.026,0.19c-0.053,0.101 -0.112,0.063 -0.165,0.128c-0.05,0.063 -0.099,0.276 -0.079,0.362c-0.169,0.058 -0.009,0.227 -0.015,0.35c-0.002,0.05 -0.041,0.105 -0.045,0.161c-0.01,0.119 0.017,0.266 0.068,0.37c0.097,0.198 0.268,0.413 0.435,0.544c0.19,0.148 0.365,0.572 0.608,0.631c0.177,0.042 0.384,-0.104 0.543,-0.143c0.18,-0.043 0.397,0.01 0.571,-0.053c0.222,-0.079 0.127,-0.337 0.288,-0.45c0.104,-0.074 0.287,-0.01 0.406,-0.051c0.2,-0.069 0.339,-0.263 0.376,-0.46c0.016,-0.082 0.01,-0.145 0.039,-0.221c0.039,-0.103 0.111,-0.16 0.09,-0.293c-0.01,-0.062 -0.052,-0.12 -0.064,-0.187c-0.022,-0.114 0.002,-0.224 0,-0.337c-0.003,-0.2 0.017,-0.379 -0.078,-0.55c-0.38,-0.688 -1.236,-0.929 -1.975,-0.789c-0.18,0.034 -0.287,0.126 -0.442,0.207c-0.17,0.088 -0.139,0.166 -0.318,0.224c-0.081,0.026 -0.216,0.124 -0.215,0.224c0.001,0.115 0.005,0.051 0.012,0.169c-0.021,0.011 -0.021,-0.005 -0.03,-0.025"/>
      <path id="svg_31" fill="#FFFFFF" d="m23.477,-64.001c0.018,0.072 0.007,0.127 -0.026,0.19c-0.053,0.101 -0.112,0.063 -0.165,0.128c-0.05,0.063 -0.099,0.276 -0.079,0.362c-0.169,0.058 -0.009,0.227 -0.015,0.35c-0.002,0.05 -0.041,0.105 -0.045,0.161c-0.01,0.119 0.017,0.266 0.068,0.37c0.097,0.198 0.268,0.413 0.435,0.544c0.19,0.148 0.365,0.572 0.608,0.631c0.177,0.042 0.384,-0.104 0.543,-0.143c0.18,-0.043 0.397,0.01 0.571,-0.053c0.222,-0.079 0.127,-0.337 0.288,-0.45c0.104,-0.074 0.287,-0.01 0.406,-0.051c0.2,-0.069 0.339,-0.263 0.376,-0.46c0.016,-0.082 0.01,-0.145 0.039,-0.221c0.039,-0.103 0.111,-0.16 0.09,-0.293c-0.01,-0.062 -0.052,-0.12 -0.064,-0.187c-0.022,-0.114 0.002,-0.224 0,-0.337c-0.003,-0.2 0.017,-0.379 -0.078,-0.55c-0.38,-0.688 -1.236,-0.929 -1.975,-0.789c-0.18,0.034 -0.287,0.126 -0.442,0.207c-0.17,0.088 -0.139,0.166 -0.318,0.224c-0.081,0.026 -0.216,0.124 -0.215,0.224c0.001,0.115 0.005,0.051 0.012,0.169c-0.021,0.011 -0.021,-0.005 -0.03,-0.025"/>
      <path id="svg_32" fill="#FFFFFF" d="m15.816,-64.001c0.018,0.072 0.007,0.127 -0.026,0.19c-0.053,0.101 -0.112,0.063 -0.165,0.128c-0.05,0.063 -0.099,0.276 -0.079,0.362c-0.169,0.058 -0.009,0.227 -0.015,0.35c-0.002,0.05 -0.041,0.105 -0.045,0.161c-0.01,0.119 0.017,0.266 0.068,0.37c0.097,0.198 0.268,0.413 0.435,0.544c0.19,0.148 0.365,0.572 0.608,0.631c0.177,0.042 0.384,-0.104 0.543,-0.143c0.18,-0.043 0.397,0.01 0.571,-0.053c0.222,-0.079 0.127,-0.337 0.288,-0.45c0.104,-0.074 0.287,-0.01 0.406,-0.051c0.2,-0.069 0.339,-0.263 0.376,-0.46c0.016,-0.082 0.01,-0.145 0.039,-0.221c0.039,-0.103 0.111,-0.16 0.09,-0.293c-0.01,-0.062 -0.052,-0.12 -0.064,-0.187c-0.022,-0.114 0.002,-0.224 0,-0.337c-0.003,-0.2 0.017,-0.379 -0.078,-0.55c-0.38,-0.688 -1.236,-0.929 -1.975,-0.789c-0.18,0.034 -0.287,0.126 -0.442,0.207c-0.17,0.088 -0.139,0.166 -0.318,0.224c-0.081,0.026 -0.216,0.124 -0.215,0.224c0.001,0.115 0.005,0.051 0.012,0.169c-0.021,0.011 -0.021,-0.005 -0.03,-0.025"/>
      <path id="svg_33" fill="#FFFFFF" d="m8.156,-64.001c0.018,0.072 0.007,0.127 -0.026,0.19c-0.053,0.101 -0.112,0.063 -0.165,0.128c-0.05,0.063 -0.099,0.276 -0.079,0.362c-0.169,0.058 -0.009,0.227 -0.015,0.35c-0.002,0.05 -0.041,0.105 -0.045,0.161c-0.01,0.119 0.017,0.266 0.068,0.37c0.097,0.198 0.268,0.413 0.435,0.544c0.19,0.148 0.365,0.572 0.608,0.631c0.177,0.042 0.384,-0.104 0.543,-0.143c0.18,-0.043 0.397,0.01 0.571,-0.053c0.222,-0.079 0.127,-0.337 0.288,-0.45c0.104,-0.074 0.287,-0.01 0.406,-0.051c0.2,-0.069 0.339,-0.263 0.376,-0.46c0.016,-0.082 0.01,-0.145 0.039,-0.221c0.039,-0.103 0.111,-0.16 0.09,-0.293c-0.01,-0.062 -0.052,-0.12 -0.064,-0.187c-0.022,-0.114 0.002,-0.224 0,-0.337c-0.003,-0.2 0.017,-0.379 -0.078,-0.55c-0.38,-0.688 -1.236,-0.929 -1.975,-0.789c-0.18,0.034 -0.287,0.126 -0.442,0.207c-0.17,0.088 -0.139,0.166 -0.318,0.224c-0.081,0.026 -0.216,0.124 -0.215,0.224c0.001,0.115 0.005,0.051 0.012,0.169c-0.021,0.011 -0.021,-0.005 -0.03,-0.025"/>
      <path id="svg_34" fill="#FFFFFF" d="m0.495,-64.001c0.018,0.072 0.007,0.127 -0.026,0.19c-0.053,0.101 -0.112,0.063 -0.165,0.128c-0.05,0.063 -0.099,0.276 -0.079,0.362c-0.169,0.058 -0.01,0.227 -0.015,0.35c-0.002,0.05 -0.041,0.105 -0.045,0.161c-0.01,0.119 0.017,0.266 0.068,0.37c0.097,0.198 0.268,0.413 0.435,0.544c0.19,0.148 0.365,0.572 0.608,0.631c0.177,0.042 0.384,-0.104 0.543,-0.143c0.181,-0.042 0.398,0.011 0.572,-0.052c0.222,-0.079 0.127,-0.337 0.288,-0.45c0.104,-0.074 0.287,-0.01 0.406,-0.051c0.2,-0.069 0.339,-0.263 0.376,-0.46c0.016,-0.082 0.01,-0.145 0.039,-0.221c0.039,-0.103 0.111,-0.16 0.09,-0.293c-0.01,-0.062 -0.052,-0.12 -0.064,-0.187c-0.022,-0.114 0.002,-0.224 0,-0.337c-0.003,-0.2 0.017,-0.379 -0.078,-0.55c-0.38,-0.688 -1.236,-0.929 -1.975,-0.789c-0.18,0.034 -0.287,0.126 -0.442,0.207c-0.17,0.088 -0.139,0.166 -0.318,0.224c-0.081,0.026 -0.216,0.124 -0.215,0.224c0.001,0.115 0.005,0.051 0.012,0.169c-0.021,0.011 -0.021,-0.005 -0.03,-0.025"/>
     </g>
     <g id="svg_35">
      <path id="svg_36" fill="#FFFFFF" d="m69.439,-56.348c0.018,0.072 0.007,0.127 -0.026,0.19c-0.053,0.101 -0.112,0.063 -0.165,0.128c-0.05,0.063 -0.099,0.276 -0.079,0.362c-0.169,0.058 -0.01,0.227 -0.015,0.35c-0.002,0.05 -0.041,0.105 -0.045,0.161c-0.01,0.119 0.017,0.266 0.068,0.37c0.097,0.198 0.268,0.413 0.435,0.544c0.19,0.148 0.365,0.572 0.608,0.631c0.177,0.042 0.384,-0.104 0.543,-0.143c0.18,-0.043 0.397,0.01 0.571,-0.053c0.222,-0.079 0.127,-0.337 0.288,-0.45c0.104,-0.074 0.287,-0.01 0.406,-0.051c0.2,-0.069 0.339,-0.263 0.376,-0.46c0.016,-0.082 0.01,-0.145 0.039,-0.221c0.039,-0.103 0.111,-0.16 0.09,-0.293c-0.01,-0.062 -0.052,-0.12 -0.064,-0.187c-0.022,-0.114 0.002,-0.224 0,-0.337c-0.003,-0.2 0.017,-0.379 -0.078,-0.55c-0.38,-0.688 -1.236,-0.929 -1.975,-0.789c-0.18,0.034 -0.287,0.126 -0.442,0.207c-0.17,0.088 -0.139,0.166 -0.318,0.224c-0.081,0.026 -0.216,0.124 -0.215,0.224c0.001,0.115 0.005,0.051 0.012,0.169c-0.021,0.011 -0.021,-0.005 -0.03,-0.025"/>
      <path id="svg_37" fill="#FFFFFF" d="m61.778,-56.348c0.018,0.072 0.007,0.127 -0.026,0.19c-0.053,0.101 -0.112,0.063 -0.165,0.128c-0.05,0.063 -0.099,0.276 -0.079,0.362c-0.169,0.058 -0.009,0.227 -0.015,0.35c-0.002,0.05 -0.041,0.105 -0.045,0.161c-0.01,0.119 0.017,0.266 0.068,0.37c0.097,0.198 0.268,0.413 0.435,0.544c0.19,0.148 0.365,0.572 0.608,0.631c0.177,0.042 0.384,-0.104 0.543,-0.143c0.18,-0.043 0.397,0.01 0.571,-0.053c0.222,-0.079 0.127,-0.337 0.288,-0.45c0.104,-0.074 0.287,-0.01 0.406,-0.051c0.2,-0.069 0.339,-0.263 0.376,-0.46c0.016,-0.082 0.01,-0.145 0.039,-0.221c0.039,-0.103 0.111,-0.16 0.09,-0.293c-0.01,-0.062 -0.052,-0.12 -0.064,-0.187c-0.022,-0.114 0.002,-0.224 0,-0.337c-0.003,-0.2 0.017,-0.379 -0.078,-0.55c-0.38,-0.688 -1.236,-0.929 -1.975,-0.789c-0.18,0.034 -0.287,0.126 -0.442,0.207c-0.17,0.088 -0.139,0.166 -0.318,0.224c-0.081,0.026 -0.216,0.124 -0.215,0.224c0.001,0.115 0.005,0.051 0.012,0.169c-0.021,0.011 -0.021,-0.005 -0.03,-0.025"/>
      <path id="svg_38" fill="#FFFFFF" d="m54.118,-56.348c0.018,0.072 0.007,0.127 -0.026,0.19c-0.053,0.101 -0.112,0.063 -0.165,0.128c-0.05,0.063 -0.099,0.276 -0.079,0.362c-0.169,0.058 -0.009,0.227 -0.015,0.35c-0.002,0.05 -0.041,0.105 -0.045,0.161c-0.01,0.119 0.017,0.266 0.068,0.37c0.097,0.198 0.268,0.413 0.435,0.544c0.19,0.148 0.365,0.572 0.608,0.631c0.177,0.042 0.384,-0.104 0.543,-0.143c0.18,-0.043 0.397,0.01 0.571,-0.053c0.222,-0.079 0.127,-0.337 0.288,-0.45c0.104,-0.074 0.287,-0.01 0.406,-0.051c0.2,-0.069 0.339,-0.263 0.376,-0.46c0.016,-0.082 0.01,-0.145 0.039,-0.221c0.039,-0.103 0.111,-0.16 0.09,-0.293c-0.01,-0.062 -0.052,-0.12 -0.064,-0.187c-0.022,-0.114 0.002,-0.224 0,-0.337c-0.003,-0.2 0.017,-0.379 -0.078,-0.55c-0.38,-0.688 -1.236,-0.929 -1.975,-0.789c-0.18,0.034 -0.287,0.126 -0.442,0.207c-0.17,0.088 -0.139,0.166 -0.318,0.224c-0.081,0.026 -0.216,0.124 -0.215,0.224c0.001,0.115 0.005,0.051 0.012,0.169c-0.021,0.011 -0.021,-0.005 -0.03,-0.025"/>
      <path id="svg_39" fill="#FFFFFF" d="m46.458,-56.348c0.018,0.072 0.007,0.127 -0.026,0.19c-0.053,0.101 -0.112,0.063 -0.165,0.128c-0.05,0.063 -0.099,0.276 -0.079,0.362c-0.169,0.058 -0.009,0.227 -0.015,0.35c-0.002,0.05 -0.041,0.105 -0.045,0.161c-0.01,0.119 0.017,0.266 0.068,0.37c0.097,0.198 0.268,0.413 0.435,0.544c0.19,0.148 0.365,0.572 0.608,0.631c0.177,0.042 0.384,-0.104 0.543,-0.143c0.18,-0.043 0.397,0.01 0.571,-0.053c0.222,-0.079 0.127,-0.337 0.288,-0.45c0.104,-0.074 0.287,-0.01 0.406,-0.051c0.2,-0.069 0.339,-0.263 0.376,-0.46c0.016,-0.082 0.01,-0.145 0.039,-0.221c0.039,-0.103 0.111,-0.16 0.09,-0.293c-0.01,-0.062 -0.052,-0.12 -0.064,-0.187c-0.022,-0.114 0.002,-0.224 0,-0.337c-0.003,-0.2 0.017,-0.379 -0.078,-0.55c-0.38,-0.688 -1.236,-0.929 -1.975,-0.789c-0.18,0.034 -0.287,0.126 -0.442,0.207c-0.17,0.088 -0.139,0.166 -0.318,0.224c-0.081,0.026 -0.216,0.124 -0.215,0.224c0.001,0.115 0.005,0.051 0.012,0.169c-0.021,0.011 -0.021,-0.005 -0.03,-0.025"/>
      <path id="svg_40" fill="#FFFFFF" d="m38.797,-56.348c0.018,0.072 0.007,0.127 -0.026,0.19c-0.053,0.101 -0.112,0.063 -0.165,0.128c-0.05,0.063 -0.099,0.276 -0.079,0.362c-0.169,0.058 -0.009,0.227 -0.015,0.35c-0.002,0.05 -0.041,0.105 -0.045,0.161c-0.01,0.119 0.017,0.266 0.068,0.37c0.097,0.198 0.268,0.413 0.435,0.544c0.19,0.148 0.365,0.572 0.608,0.631c0.177,0.042 0.384,-0.104 0.543,-0.143c0.18,-0.043 0.397,0.01 0.571,-0.053c0.222,-0.079 0.127,-0.337 0.288,-0.45c0.104,-0.074 0.287,-0.01 0.406,-0.051c0.2,-0.069 0.339,-0.263 0.376,-0.46c0.016,-0.082 0.01,-0.145 0.039,-0.221c0.039,-0.103 0.111,-0.16 0.09,-0.293c-0.01,-0.062 -0.052,-0.12 -0.064,-0.187c-0.022,-0.114 0.002,-0.224 0,-0.337c-0.003,-0.2 0.017,-0.379 -0.078,-0.55c-0.38,-0.688 -1.236,-0.929 -1.975,-0.789c-0.18,0.034 -0.287,0.126 -0.442,0.207c-0.17,0.088 -0.139,0.166 -0.318,0.224c-0.081,0.026 -0.216,0.124 -0.215,0.224c0.001,0.115 0.005,0.051 0.012,0.169c-0.021,0.011 -0.021,-0.005 -0.03,-0.025"/>
      <path id="svg_41" fill="#FFFFFF" d="m31.137,-56.348c0.018,0.072 0.007,0.127 -0.026,0.19c-0.053,0.101 -0.112,0.063 -0.165,0.128c-0.05,0.063 -0.099,0.276 -0.079,0.362c-0.169,0.058 -0.009,0.227 -0.015,0.35c-0.002,0.05 -0.041,0.105 -0.045,0.161c-0.01,0.119 0.017,0.266 0.068,0.37c0.097,0.198 0.268,0.413 0.435,0.544c0.19,0.148 0.365,0.572 0.608,0.631c0.177,0.042 0.384,-0.104 0.543,-0.143c0.18,-0.043 0.397,0.01 0.571,-0.053c0.222,-0.079 0.127,-0.337 0.288,-0.45c0.104,-0.074 0.287,-0.01 0.406,-0.051c0.2,-0.069 0.339,-0.263 0.376,-0.46c0.016,-0.082 0.01,-0.145 0.039,-0.221c0.039,-0.103 0.111,-0.16 0.09,-0.293c-0.01,-0.062 -0.052,-0.12 -0.064,-0.187c-0.022,-0.114 0.002,-0.224 0,-0.337c-0.003,-0.2 0.017,-0.379 -0.078,-0.55c-0.38,-0.688 -1.236,-0.929 -1.975,-0.789c-0.18,0.034 -0.287,0.126 -0.442,0.207c-0.17,0.088 -0.139,0.166 -0.318,0.224c-0.081,0.026 -0.216,0.124 -0.215,0.224c0.001,0.115 0.005,0.051 0.012,0.169c-0.021,0.011 -0.021,-0.005 -0.03,-0.025"/>
      <path id="svg_42" fill="#FFFFFF" d="m23.477,-56.348c0.018,0.072 0.007,0.127 -0.026,0.19c-0.053,0.101 -0.112,0.063 -0.165,0.128c-0.05,0.063 -0.099,0.276 -0.079,0.362c-0.169,0.058 -0.009,0.227 -0.015,0.35c-0.002,0.05 -0.041,0.105 -0.045,0.161c-0.01,0.119 0.017,0.266 0.068,0.37c0.097,0.198 0.268,0.413 0.435,0.544c0.19,0.148 0.365,0.572 0.608,0.631c0.177,0.042 0.384,-0.104 0.543,-0.143c0.18,-0.043 0.397,0.01 0.571,-0.053c0.222,-0.079 0.127,-0.337 0.288,-0.45c0.104,-0.074 0.287,-0.01 0.406,-0.051c0.2,-0.069 0.339,-0.263 0.376,-0.46c0.016,-0.082 0.01,-0.145 0.039,-0.221c0.039,-0.103 0.111,-0.16 0.09,-0.293c-0.01,-0.062 -0.052,-0.12 -0.064,-0.187c-0.022,-0.114 0.002,-0.224 0,-0.337c-0.003,-0.2 0.017,-0.379 -0.078,-0.55c-0.38,-0.688 -1.236,-0.929 -1.975,-0.789c-0.18,0.034 -0.287,0.126 -0.442,0.207c-0.17,0.088 -0.139,0.166 -0.318,0.224c-0.081,0.026 -0.216,0.124 -0.215,0.224c0.001,0.115 0.005,0.051 0.012,0.169c-0.021,0.011 -0.021,-0.005 -0.03,-0.025"/>
      <path id="svg_43" fill="#FFFFFF" d="m15.816,-56.348c0.018,0.072 0.007,0.127 -0.026,0.19c-0.053,0.101 -0.112,0.063 -0.165,0.128c-0.05,0.063 -0.099,0.276 -0.079,0.362c-0.169,0.058 -0.009,0.227 -0.015,0.35c-0.002,0.05 -0.041,0.105 -0.045,0.161c-0.01,0.119 0.017,0.266 0.068,0.37c0.097,0.198 0.268,0.413 0.435,0.544c0.19,0.148 0.365,0.572 0.608,0.631c0.177,0.042 0.384,-0.104 0.543,-0.143c0.18,-0.043 0.397,0.01 0.571,-0.053c0.222,-0.079 0.127,-0.337 0.288,-0.45c0.104,-0.074 0.287,-0.01 0.406,-0.051c0.2,-0.069 0.339,-0.263 0.376,-0.46c0.016,-0.082 0.01,-0.145 0.039,-0.221c0.039,-0.103 0.111,-0.16 0.09,-0.293c-0.01,-0.062 -0.052,-0.12 -0.064,-0.187c-0.022,-0.114 0.002,-0.224 0,-0.337c-0.003,-0.2 0.017,-0.379 -0.078,-0.55c-0.38,-0.688 -1.236,-0.929 -1.975,-0.789c-0.18,0.034 -0.287,0.126 -0.442,0.207c-0.17,0.088 -0.139,0.166 -0.318,0.224c-0.081,0.026 -0.216,0.124 -0.215,0.224c0.001,0.115 0.005,0.051 0.012,0.169c-0.021,0.011 -0.021,-0.005 -0.03,-0.025"/>
      <path id="svg_44" fill="#FFFFFF" d="m8.156,-56.348c0.018,0.072 0.007,0.127 -0.026,0.19c-0.053,0.101 -0.112,0.063 -0.165,0.128c-0.05,0.063 -0.099,0.276 -0.079,0.362c-0.169,0.058 -0.009,0.227 -0.015,0.35c-0.002,0.05 -0.041,0.105 -0.045,0.161c-0.01,0.119 0.017,0.266 0.068,0.37c0.097,0.198 0.268,0.413 0.435,0.544c0.19,0.148 0.365,0.572 0.608,0.631c0.177,0.042 0.384,-0.104 0.543,-0.143c0.18,-0.043 0.397,0.01 0.571,-0.053c0.222,-0.079 0.127,-0.337 0.288,-0.45c0.104,-0.074 0.287,-0.01 0.406,-0.051c0.2,-0.069 0.339,-0.263 0.376,-0.46c0.016,-0.082 0.01,-0.145 0.039,-0.221c0.039,-0.103 0.111,-0.16 0.09,-0.293c-0.01,-0.062 -0.052,-0.12 -0.064,-0.187c-0.022,-0.114 0.002,-0.224 0,-0.337c-0.003,-0.2 0.017,-0.379 -0.078,-0.55c-0.38,-0.688 -1.236,-0.929 -1.975,-0.789c-0.18,0.034 -0.287,0.126 -0.442,0.207c-0.17,0.088 -0.139,0.166 -0.318,0.224c-0.081,0.026 -0.216,0.124 -0.215,0.224c0.001,0.115 0.005,0.051 0.012,0.169c-0.021,0.011 -0.021,-0.005 -0.03,-0.025"/>
      <path id="svg_45" fill="#FFFFFF" d="m0.495,-56.348c0.018,0.072 0.007,0.127 -0.026,0.19c-0.053,0.101 -0.112,0.063 -0.165,0.128c-0.05,0.063 -0.099,0.276 -0.079,0.362c-0.169,0.058 -0.01,0.227 -0.015,0.35c-0.002,0.05 -0.041,0.105 -0.045,0.161c-0.01,0.119 0.017,0.266 0.068,0.37c0.097,0.198 0.268,0.413 0.435,0.544c0.19,0.148 0.365,0.572 0.608,0.631c0.177,0.042 0.384,-0.104 0.543,-0.143c0.18,-0.043 0.397,0.01 0.571,-0.053c0.222,-0.079 0.127,-0.337 0.288,-0.45c0.104,-0.074 0.287,-0.01 0.406,-0.051c0.2,-0.069 0.339,-0.263 0.376,-0.46c0.016,-0.082 0.01,-0.145 0.039,-0.221c0.039,-0.103 0.111,-0.16 0.09,-0.293c-0.01,-0.062 -0.052,-0.12 -0.064,-0.187c-0.022,-0.114 0.002,-0.224 0,-0.337c-0.003,-0.2 0.017,-0.379 -0.078,-0.55c-0.38,-0.688 -1.236,-0.929 -1.975,-0.789c-0.18,0.034 -0.287,0.126 -0.442,0.207c-0.17,0.088 -0.139,0.166 -0.318,0.224c-0.081,0.026 -0.216,0.124 -0.215,0.224c0.003,0.117 0.006,0.053 0.013,0.171c-0.021,0.011 -0.021,-0.005 -0.03,-0.025"/>
     </g>
     <g id="svg_46">
      <path id="svg_47" fill="#FFFFFF" d="m69.439,-48.695c0.018,0.072 0.007,0.127 -0.026,0.19c-0.053,0.101 -0.112,0.063 -0.165,0.128c-0.05,0.063 -0.099,0.276 -0.079,0.362c-0.169,0.058 -0.01,0.227 -0.015,0.35c-0.002,0.05 -0.041,0.105 -0.045,0.161c-0.01,0.119 0.017,0.266 0.068,0.37c0.097,0.198 0.268,0.413 0.435,0.544c0.19,0.148 0.365,0.572 0.608,0.631c0.177,0.042 0.384,-0.104 0.543,-0.143c0.18,-0.043 0.397,0.01 0.571,-0.053c0.222,-0.079 0.127,-0.337 0.288,-0.45c0.104,-0.074 0.287,-0.01 0.406,-0.051c0.2,-0.069 0.339,-0.263 0.376,-0.46c0.016,-0.082 0.01,-0.145 0.039,-0.221c0.039,-0.103 0.111,-0.16 0.09,-0.293c-0.01,-0.062 -0.052,-0.12 -0.064,-0.187c-0.022,-0.114 0.002,-0.224 0,-0.337c-0.003,-0.2 0.017,-0.379 -0.078,-0.55c-0.38,-0.688 -1.236,-0.929 -1.975,-0.789c-0.18,0.034 -0.287,0.126 -0.442,0.207c-0.17,0.088 -0.139,0.166 -0.318,0.224c-0.081,0.026 -0.216,0.124 -0.215,0.224c0.001,0.115 0.005,0.051 0.012,0.169c-0.021,0.011 -0.021,-0.005 -0.03,-0.025"/>
      <path id="svg_48" fill="#FFFFFF" d="m61.778,-48.695c0.018,0.072 0.007,0.127 -0.026,0.19c-0.053,0.101 -0.112,0.063 -0.165,0.128c-0.05,0.063 -0.099,0.276 -0.079,0.362c-0.169,0.058 -0.009,0.227 -0.015,0.35c-0.002,0.05 -0.041,0.105 -0.045,0.161c-0.01,0.119 0.017,0.266 0.068,0.37c0.097,0.198 0.268,0.413 0.435,0.544c0.19,0.148 0.365,0.572 0.608,0.631c0.177,0.042 0.384,-0.104 0.543,-0.143c0.18,-0.043 0.397,0.01 0.571,-0.053c0.222,-0.079 0.127,-0.337 0.288,-0.45c0.104,-0.074 0.287,-0.01 0.406,-0.051c0.2,-0.069 0.339,-0.263 0.376,-0.46c0.016,-0.082 0.01,-0.145 0.039,-0.221c0.039,-0.103 0.111,-0.16 0.09,-0.293c-0.01,-0.062 -0.052,-0.12 -0.064,-0.187c-0.022,-0.114 0.002,-0.224 0,-0.337c-0.003,-0.2 0.017,-0.379 -0.078,-0.55c-0.38,-0.688 -1.236,-0.929 -1.975,-0.789c-0.18,0.034 -0.287,0.126 -0.442,0.207c-0.17,0.088 -0.139,0.166 -0.318,0.224c-0.081,0.026 -0.216,0.124 -0.215,0.224c0.001,0.115 0.005,0.051 0.012,0.169c-0.021,0.011 -0.021,-0.005 -0.03,-0.025"/>
      <path id="svg_49" fill="#FFFFFF" d="m54.118,-48.695c0.018,0.072 0.007,0.127 -0.026,0.19c-0.053,0.101 -0.112,0.063 -0.165,0.128c-0.05,0.063 -0.099,0.276 -0.079,0.362c-0.169,0.058 -0.009,0.227 -0.015,0.35c-0.002,0.05 -0.041,0.105 -0.045,0.161c-0.01,0.119 0.017,0.266 0.068,0.37c0.097,0.198 0.268,0.413 0.435,0.544c0.19,0.148 0.365,0.572 0.608,0.631c0.177,0.042 0.384,-0.104 0.543,-0.143c0.18,-0.043 0.397,0.01 0.571,-0.053c0.222,-0.079 0.127,-0.337 0.288,-0.45c0.104,-0.074 0.287,-0.01 0.406,-0.051c0.2,-0.069 0.339,-0.263 0.376,-0.46c0.016,-0.082 0.01,-0.145 0.039,-0.221c0.039,-0.103 0.111,-0.16 0.09,-0.293c-0.01,-0.062 -0.052,-0.12 -0.064,-0.187c-0.022,-0.114 0.002,-0.224 0,-0.337c-0.003,-0.2 0.017,-0.379 -0.078,-0.55c-0.38,-0.688 -1.236,-0.929 -1.975,-0.789c-0.18,0.034 -0.287,0.126 -0.442,0.207c-0.17,0.088 -0.139,0.166 -0.318,0.224c-0.081,0.026 -0.216,0.124 -0.215,0.224c0.001,0.115 0.005,0.051 0.012,0.169c-0.021,0.011 -0.021,-0.005 -0.03,-0.025"/>
      <path id="svg_50" fill="#FFFFFF" d="m46.458,-48.695c0.018,0.072 0.007,0.127 -0.026,0.19c-0.053,0.101 -0.112,0.063 -0.165,0.128c-0.05,0.063 -0.099,0.276 -0.079,0.362c-0.169,0.058 -0.009,0.227 -0.015,0.35c-0.002,0.05 -0.041,0.105 -0.045,0.161c-0.01,0.119 0.017,0.266 0.068,0.37c0.097,0.198 0.268,0.413 0.435,0.544c0.19,0.148 0.365,0.572 0.608,0.631c0.177,0.042 0.384,-0.104 0.543,-0.143c0.18,-0.043 0.397,0.01 0.571,-0.053c0.222,-0.079 0.127,-0.337 0.288,-0.45c0.104,-0.074 0.287,-0.01 0.406,-0.051c0.2,-0.069 0.339,-0.263 0.376,-0.46c0.016,-0.082 0.01,-0.145 0.039,-0.221c0.039,-0.103 0.111,-0.16 0.09,-0.293c-0.01,-0.062 -0.052,-0.12 -0.064,-0.187c-0.022,-0.114 0.002,-0.224 0,-0.337c-0.003,-0.2 0.017,-0.379 -0.078,-0.55c-0.38,-0.688 -1.236,-0.929 -1.975,-0.789c-0.18,0.034 -0.287,0.126 -0.442,0.207c-0.17,0.088 -0.139,0.166 -0.318,0.224c-0.081,0.026 -0.216,0.124 -0.215,0.224c0.001,0.115 0.005,0.051 0.012,0.169c-0.021,0.011 -0.021,-0.005 -0.03,-0.025"/>
      <path id="svg_51" fill="#FFFFFF" d="m38.797,-48.695c0.018,0.072 0.007,0.127 -0.026,0.19c-0.053,0.101 -0.112,0.063 -0.165,0.128c-0.05,0.063 -0.099,0.276 -0.079,0.362c-0.169,0.058 -0.009,0.227 -0.015,0.35c-0.002,0.05 -0.041,0.105 -0.045,0.161c-0.01,0.119 0.017,0.266 0.068,0.37c0.097,0.198 0.268,0.413 0.435,0.544c0.19,0.148 0.365,0.572 0.608,0.631c0.177,0.042 0.384,-0.104 0.543,-0.143c0.18,-0.043 0.397,0.01 0.571,-0.053c0.222,-0.079 0.127,-0.337 0.288,-0.45c0.104,-0.074 0.287,-0.01 0.406,-0.051c0.2,-0.069 0.339,-0.263 0.376,-0.46c0.016,-0.082 0.01,-0.145 0.039,-0.221c0.039,-0.103 0.111,-0.16 0.09,-0.293c-0.01,-0.062 -0.052,-0.12 -0.064,-0.187c-0.022,-0.114 0.002,-0.224 0,-0.337c-0.003,-0.2 0.017,-0.379 -0.078,-0.55c-0.38,-0.688 -1.236,-0.929 -1.975,-0.789c-0.18,0.034 -0.287,0.126 -0.442,0.207c-0.17,0.088 -0.139,0.166 -0.318,0.224c-0.081,0.026 -0.216,0.124 -0.215,0.224c0.001,0.115 0.005,0.051 0.012,0.169c-0.021,0.011 -0.021,-0.005 -0.03,-0.025"/>
      <path id="svg_52" fill="#FFFFFF" d="m31.137,-48.695c0.018,0.072 0.007,0.127 -0.026,0.19c-0.053,0.101 -0.112,0.063 -0.165,0.128c-0.05,0.063 -0.099,0.276 -0.079,0.362c-0.169,0.058 -0.009,0.227 -0.015,0.35c-0.002,0.05 -0.041,0.105 -0.045,0.161c-0.01,0.119 0.017,0.266 0.068,0.37c0.097,0.198 0.268,0.413 0.435,0.544c0.19,0.148 0.365,0.572 0.608,0.631c0.177,0.042 0.384,-0.104 0.543,-0.143c0.18,-0.043 0.397,0.01 0.571,-0.053c0.222,-0.079 0.127,-0.337 0.288,-0.45c0.104,-0.074 0.287,-0.01 0.406,-0.051c0.2,-0.069 0.339,-0.263 0.376,-0.46c0.016,-0.082 0.01,-0.145 0.039,-0.221c0.039,-0.103 0.111,-0.16 0.09,-0.293c-0.01,-0.062 -0.052,-0.12 -0.064,-0.187c-0.022,-0.114 0.002,-0.224 0,-0.337c-0.003,-0.2 0.017,-0.379 -0.078,-0.55c-0.38,-0.688 -1.236,-0.929 -1.975,-0.789c-0.18,0.034 -0.287,0.126 -0.442,0.207c-0.17,0.088 -0.139,0.166 -0.318,0.224c-0.081,0.026 -0.216,0.124 -0.215,0.224c0.001,0.115 0.005,0.051 0.012,0.169c-0.021,0.011 -0.021,-0.005 -0.03,-0.025"/>
      <path id="svg_53" fill="#FFFFFF" d="m23.477,-48.695c0.018,0.072 0.007,0.127 -0.026,0.19c-0.053,0.101 -0.112,0.063 -0.165,0.128c-0.05,0.063 -0.099,0.276 -0.079,0.362c-0.169,0.058 -0.009,0.227 -0.015,0.35c-0.002,0.05 -0.041,0.105 -0.045,0.161c-0.01,0.119 0.017,0.266 0.068,0.37c0.097,0.198 0.268,0.413 0.435,0.544c0.19,0.148 0.365,0.572 0.608,0.631c0.177,0.042 0.384,-0.104 0.543,-0.143c0.18,-0.043 0.397,0.01 0.571,-0.053c0.222,-0.079 0.127,-0.337 0.288,-0.45c0.104,-0.074 0.287,-0.01 0.406,-0.051c0.2,-0.069 0.339,-0.263 0.376,-0.46c0.016,-0.082 0.01,-0.145 0.039,-0.221c0.039,-0.103 0.111,-0.16 0.09,-0.293c-0.01,-0.062 -0.052,-0.12 -0.064,-0.187c-0.022,-0.114 0.002,-0.224 0,-0.337c-0.003,-0.2 0.017,-0.379 -0.078,-0.55c-0.38,-0.688 -1.236,-0.929 -1.975,-0.789c-0.18,0.034 -0.287,0.126 -0.442,0.207c-0.17,0.088 -0.139,0.166 -0.318,0.224c-0.081,0.026 -0.216,0.124 -0.215,0.224c0.001,0.115 0.005,0.051 0.012,0.169c-0.021,0.011 -0.021,-0.005 -0.03,-0.025"/>
      <path id="svg_54" fill="#FFFFFF" d="m15.816,-48.695c0.018,0.072 0.007,0.127 -0.026,0.19c-0.053,0.101 -0.112,0.063 -0.165,0.128c-0.05,0.063 -0.099,0.276 -0.079,0.362c-0.169,0.058 -0.009,0.227 -0.015,0.35c-0.002,0.05 -0.041,0.105 -0.045,0.161c-0.01,0.119 0.017,0.266 0.068,0.37c0.097,0.198 0.268,0.413 0.435,0.544c0.19,0.148 0.365,0.572 0.608,0.631c0.177,0.042 0.384,-0.104 0.543,-0.143c0.18,-0.043 0.397,0.01 0.571,-0.053c0.222,-0.079 0.127,-0.337 0.288,-0.45c0.104,-0.074 0.287,-0.01 0.406,-0.051c0.2,-0.069 0.339,-0.263 0.376,-0.46c0.016,-0.082 0.01,-0.145 0.039,-0.221c0.039,-0.103 0.111,-0.16 0.09,-0.293c-0.01,-0.062 -0.052,-0.12 -0.064,-0.187c-0.022,-0.114 0.002,-0.224 0,-0.337c-0.003,-0.2 0.017,-0.379 -0.078,-0.55c-0.38,-0.688 -1.236,-0.929 -1.975,-0.789c-0.18,0.034 -0.287,0.126 -0.442,0.207c-0.17,0.088 -0.139,0.166 -0.318,0.224c-0.081,0.026 -0.216,0.124 -0.215,0.224c0.001,0.115 0.005,0.051 0.012,0.169c-0.021,0.011 -0.021,-0.005 -0.03,-0.025"/>
      <path id="svg_55" fill="#FFFFFF" d="m8.156,-48.695c0.018,0.072 0.007,0.127 -0.026,0.19c-0.053,0.101 -0.112,0.063 -0.165,0.128c-0.05,0.063 -0.099,0.276 -0.079,0.362c-0.169,0.058 -0.009,0.227 -0.015,0.35c-0.002,0.05 -0.041,0.105 -0.045,0.161c-0.01,0.119 0.017,0.266 0.068,0.37c0.097,0.198 0.268,0.413 0.435,0.544c0.19,0.148 0.365,0.572 0.608,0.631c0.177,0.042 0.384,-0.104 0.543,-0.143c0.18,-0.043 0.397,0.01 0.571,-0.053c0.222,-0.079 0.127,-0.337 0.288,-0.45c0.104,-0.074 0.287,-0.01 0.406,-0.051c0.2,-0.069 0.339,-0.263 0.376,-0.46c0.016,-0.082 0.01,-0.145 0.039,-0.221c0.039,-0.103 0.111,-0.16 0.09,-0.293c-0.01,-0.062 -0.052,-0.12 -0.064,-0.187c-0.022,-0.114 0.002,-0.224 0,-0.337c-0.003,-0.2 0.017,-0.379 -0.078,-0.55c-0.38,-0.688 -1.236,-0.929 -1.975,-0.789c-0.18,0.034 -0.287,0.126 -0.442,0.207c-0.17,0.088 -0.139,0.166 -0.318,0.224c-0.081,0.026 -0.216,0.124 -0.215,0.224c0.001,0.115 0.005,0.051 0.012,0.169c-0.021,0.011 -0.021,-0.005 -0.03,-0.025"/>
      <path id="svg_56" fill="#FFFFFF" d="m0.495,-48.695c0.018,0.072 0.007,0.127 -0.026,0.19c-0.053,0.101 -0.112,0.063 -0.165,0.128c-0.05,0.063 -0.099,0.276 -0.079,0.362c-0.169,0.058 -0.01,0.227 -0.015,0.35c-0.002,0.05 -0.041,0.105 -0.045,0.161c-0.01,0.119 0.017,0.266 0.068,0.37c0.097,0.198 0.268,0.413 0.435,0.544c0.19,0.148 0.365,0.572 0.608,0.631c0.177,0.042 0.384,-0.104 0.543,-0.143c0.18,-0.043 0.397,0.01 0.571,-0.053c0.222,-0.079 0.127,-0.337 0.288,-0.45c0.104,-0.074 0.287,-0.01 0.406,-0.051c0.2,-0.069 0.339,-0.263 0.376,-0.46c0.016,-0.082 0.01,-0.145 0.039,-0.221c0.039,-0.103 0.111,-0.16 0.09,-0.293c-0.01,-0.062 -0.052,-0.12 -0.064,-0.187c-0.022,-0.114 0.002,-0.224 0,-0.337c-0.003,-0.2 0.017,-0.379 -0.078,-0.55c-0.38,-0.688 -1.236,-0.929 -1.975,-0.789c-0.18,0.034 -0.287,0.126 -0.442,0.207c-0.17,0.088 -0.139,0.166 -0.318,0.224c-0.081,0.026 -0.216,0.124 -0.215,0.224c0.001,0.115 0.005,0.051 0.012,0.169c-0.021,0.011 -0.021,-0.005 -0.03,-0.025"/>
     </g>
     <g id="svg_57">
      <path id="svg_58" fill="#FFFFFF" d="m69.439,-41.042c0.018,0.072 0.007,0.127 -0.026,0.19c-0.053,0.101 -0.112,0.063 -0.165,0.128c-0.05,0.063 -0.099,0.276 -0.079,0.362c-0.169,0.058 -0.01,0.227 -0.015,0.35c-0.002,0.05 -0.041,0.105 -0.045,0.161c-0.01,0.119 0.017,0.266 0.068,0.37c0.097,0.198 0.268,0.413 0.435,0.544c0.19,0.148 0.365,0.572 0.608,0.631c0.177,0.042 0.384,-0.104 0.543,-0.143c0.18,-0.043 0.397,0.01 0.571,-0.053c0.222,-0.079 0.127,-0.337 0.288,-0.45c0.104,-0.074 0.287,-0.01 0.406,-0.051c0.2,-0.069 0.339,-0.263 0.376,-0.46c0.016,-0.082 0.01,-0.145 0.039,-0.221c0.039,-0.103 0.111,-0.16 0.09,-0.293c-0.01,-0.062 -0.052,-0.12 -0.064,-0.187c-0.022,-0.114 0.002,-0.224 0,-0.337c-0.003,-0.2 0.017,-0.379 -0.078,-0.55c-0.38,-0.688 -1.236,-0.929 -1.975,-0.789c-0.18,0.034 -0.287,0.126 -0.442,0.207c-0.17,0.088 -0.139,0.166 -0.318,0.224c-0.081,0.026 -0.216,0.124 -0.215,0.224c0.001,0.115 0.005,0.051 0.012,0.169c-0.021,0.011 -0.021,-0.005 -0.03,-0.025"/>
      <path id="svg_59" fill="#FFFFFF" d="m61.778,-41.042c0.018,0.072 0.007,0.127 -0.026,0.19c-0.053,0.101 -0.112,0.063 -0.165,0.128c-0.05,0.063 -0.099,0.276 -0.079,0.362c-0.169,0.058 -0.009,0.227 -0.015,0.35c-0.002,0.05 -0.041,0.105 -0.045,0.161c-0.01,0.119 0.017,0.266 0.068,0.37c0.097,0.198 0.268,0.413 0.435,0.544c0.19,0.148 0.365,0.572 0.608,0.631c0.177,0.042 0.384,-0.104 0.543,-0.143c0.18,-0.043 0.397,0.01 0.571,-0.053c0.222,-0.079 0.127,-0.337 0.288,-0.45c0.104,-0.074 0.287,-0.01 0.406,-0.051c0.2,-0.069 0.339,-0.263 0.376,-0.46c0.016,-0.082 0.01,-0.145 0.039,-0.221c0.039,-0.103 0.111,-0.16 0.09,-0.293c-0.01,-0.062 -0.052,-0.12 -0.064,-0.187c-0.022,-0.114 0.002,-0.224 0,-0.337c-0.003,-0.2 0.017,-0.379 -0.078,-0.55c-0.38,-0.688 -1.236,-0.929 -1.975,-0.789c-0.18,0.034 -0.287,0.126 -0.442,0.207c-0.17,0.088 -0.139,0.166 -0.318,0.224c-0.081,0.026 -0.216,0.124 -0.215,0.224c0.001,0.115 0.005,0.051 0.012,0.169c-0.021,0.011 -0.021,-0.005 -0.03,-0.025"/>
      <path id="svg_60" fill="#FFFFFF" d="m54.118,-41.042c0.018,0.072 0.007,0.127 -0.026,0.19c-0.053,0.101 -0.112,0.063 -0.165,0.128c-0.05,0.063 -0.099,0.276 -0.079,0.362c-0.169,0.058 -0.009,0.227 -0.015,0.35c-0.002,0.05 -0.041,0.105 -0.045,0.161c-0.01,0.119 0.017,0.266 0.068,0.37c0.097,0.198 0.268,0.413 0.435,0.544c0.19,0.148 0.365,0.572 0.608,0.631c0.177,0.042 0.384,-0.104 0.543,-0.143c0.18,-0.043 0.397,0.01 0.571,-0.053c0.222,-0.079 0.127,-0.337 0.288,-0.45c0.104,-0.074 0.287,-0.01 0.406,-0.051c0.2,-0.069 0.339,-0.263 0.376,-0.46c0.016,-0.082 0.01,-0.145 0.039,-0.221c0.039,-0.103 0.111,-0.16 0.09,-0.293c-0.01,-0.062 -0.052,-0.12 -0.064,-0.187c-0.022,-0.114 0.002,-0.224 0,-0.337c-0.003,-0.2 0.017,-0.379 -0.078,-0.55c-0.38,-0.688 -1.236,-0.929 -1.975,-0.789c-0.18,0.034 -0.287,0.126 -0.442,0.207c-0.17,0.088 -0.139,0.166 -0.318,0.224c-0.081,0.026 -0.216,0.124 -0.215,0.224c0.001,0.115 0.005,0.051 0.012,0.169c-0.021,0.011 -0.021,-0.005 -0.03,-0.025"/>
      <path id="svg_61" fill="#FFFFFF" d="m46.458,-41.042c0.018,0.072 0.007,0.127 -0.026,0.19c-0.053,0.101 -0.112,0.063 -0.165,0.128c-0.05,0.063 -0.099,0.276 -0.079,0.362c-0.169,0.058 -0.009,0.227 -0.015,0.35c-0.002,0.05 -0.041,0.105 -0.045,0.161c-0.01,0.119 0.017,0.266 0.068,0.37c0.097,0.198 0.268,0.413 0.435,0.544c0.19,0.148 0.365,0.572 0.608,0.631c0.177,0.042 0.384,-0.104 0.543,-0.143c0.18,-0.043 0.397,0.01 0.571,-0.053c0.222,-0.079 0.127,-0.337 0.288,-0.45c0.104,-0.074 0.287,-0.01 0.406,-0.051c0.2,-0.069 0.339,-0.263 0.376,-0.46c0.016,-0.082 0.01,-0.145 0.039,-0.221c0.039,-0.103 0.111,-0.16 0.09,-0.293c-0.01,-0.062 -0.052,-0.12 -0.064,-0.187c-0.022,-0.114 0.002,-0.224 0,-0.337c-0.003,-0.2 0.017,-0.379 -0.078,-0.55c-0.38,-0.688 -1.236,-0.929 -1.975,-0.789c-0.18,0.034 -0.287,0.126 -0.442,0.207c-0.17,0.088 -0.139,0.166 -0.318,0.224c-0.081,0.026 -0.216,0.124 -0.215,0.224c0.001,0.115 0.005,0.051 0.012,0.169c-0.021,0.011 -0.021,-0.005 -0.03,-0.025"/>
      <path id="svg_62" fill="#FFFFFF" d="m38.797,-41.042c0.018,0.072 0.007,0.127 -0.026,0.19c-0.053,0.101 -0.112,0.063 -0.165,0.128c-0.05,0.063 -0.099,0.276 -0.079,0.362c-0.169,0.058 -0.009,0.227 -0.015,0.35c-0.002,0.05 -0.041,0.105 -0.045,0.161c-0.01,0.119 0.017,0.266 0.068,0.37c0.097,0.198 0.268,0.413 0.435,0.544c0.19,0.148 0.365,0.572 0.608,0.631c0.177,0.042 0.384,-0.104 0.543,-0.143c0.18,-0.043 0.397,0.01 0.571,-0.053c0.222,-0.079 0.127,-0.337 0.288,-0.45c0.104,-0.074 0.287,-0.01 0.406,-0.051c0.2,-0.069 0.339,-0.263 0.376,-0.46c0.016,-0.082 0.01,-0.145 0.039,-0.221c0.039,-0.103 0.111,-0.16 0.09,-0.293c-0.01,-0.062 -0.052,-0.12 -0.064,-0.187c-0.022,-0.114 0.002,-0.224 0,-0.337c-0.003,-0.2 0.017,-0.379 -0.078,-0.55c-0.38,-0.688 -1.236,-0.929 -1.975,-0.789c-0.18,0.034 -0.287,0.126 -0.442,0.207c-0.17,0.088 -0.139,0.166 -0.318,0.224c-0.081,0.026 -0.216,0.124 -0.215,0.224c0.001,0.115 0.005,0.051 0.012,0.169c-0.021,0.011 -0.021,-0.005 -0.03,-0.025"/>
      <path id="svg_63" fill="#FFFFFF" d="m31.137,-41.042c0.018,0.072 0.007,0.127 -0.026,0.19c-0.053,0.101 -0.112,0.063 -0.165,0.128c-0.05,0.063 -0.099,0.276 -0.079,0.362c-0.169,0.058 -0.009,0.227 -0.015,0.35c-0.002,0.05 -0.041,0.105 -0.045,0.161c-0.01,0.119 0.017,0.266 0.068,0.37c0.097,0.198 0.268,0.413 0.435,0.544c0.19,0.148 0.365,0.572 0.608,0.631c0.177,0.042 0.384,-0.104 0.543,-0.143c0.18,-0.043 0.397,0.01 0.571,-0.053c0.222,-0.079 0.127,-0.337 0.288,-0.45c0.104,-0.074 0.287,-0.01 0.406,-0.051c0.2,-0.069 0.339,-0.263 0.376,-0.46c0.016,-0.082 0.01,-0.145 0.039,-0.221c0.039,-0.103 0.111,-0.16 0.09,-0.293c-0.01,-0.062 -0.052,-0.12 -0.064,-0.187c-0.022,-0.114 0.002,-0.224 0,-0.337c-0.003,-0.2 0.017,-0.379 -0.078,-0.55c-0.38,-0.688 -1.236,-0.929 -1.975,-0.789c-0.18,0.034 -0.287,0.126 -0.442,0.207c-0.17,0.088 -0.139,0.166 -0.318,0.224c-0.081,0.026 -0.216,0.124 -0.215,0.224c0.001,0.115 0.005,0.051 0.012,0.169c-0.021,0.011 -0.021,-0.005 -0.03,-0.025"/>
      <path id="svg_64" fill="#FFFFFF" d="m23.477,-41.042c0.018,0.072 0.007,0.127 -0.026,0.19c-0.053,0.101 -0.112,0.063 -0.165,0.128c-0.05,0.063 -0.099,0.276 -0.079,0.362c-0.169,0.058 -0.009,0.227 -0.015,0.35c-0.002,0.05 -0.041,0.105 -0.045,0.161c-0.01,0.119 0.017,0.266 0.068,0.37c0.097,0.198 0.268,0.413 0.435,0.544c0.19,0.148 0.365,0.572 0.608,0.631c0.177,0.042 0.384,-0.104 0.543,-0.143c0.18,-0.043 0.397,0.01 0.571,-0.053c0.222,-0.079 0.127,-0.337 0.288,-0.45c0.104,-0.074 0.287,-0.01 0.406,-0.051c0.2,-0.069 0.339,-0.263 0.376,-0.46c0.016,-0.082 0.01,-0.145 0.039,-0.221c0.039,-0.103 0.111,-0.16 0.09,-0.293c-0.01,-0.062 -0.052,-0.12 -0.064,-0.187c-0.022,-0.114 0.002,-0.224 0,-0.337c-0.003,-0.2 0.017,-0.379 -0.078,-0.55c-0.38,-0.688 -1.236,-0.929 -1.975,-0.789c-0.18,0.034 -0.287,0.126 -0.442,0.207c-0.17,0.088 -0.139,0.166 -0.318,0.224c-0.081,0.026 -0.216,0.124 -0.215,0.224c0.001,0.115 0.005,0.051 0.012,0.169c-0.021,0.011 -0.021,-0.005 -0.03,-0.025"/>
      <path id="svg_65" fill="#FFFFFF" d="m15.816,-41.042c0.018,0.072 0.007,0.127 -0.026,0.19c-0.053,0.101 -0.112,0.063 -0.165,0.128c-0.05,0.063 -0.099,0.276 -0.079,0.362c-0.169,0.058 -0.009,0.227 -0.015,0.35c-0.002,0.05 -0.041,0.105 -0.045,0.161c-0.01,0.119 0.017,0.266 0.068,0.37c0.097,0.198 0.268,0.413 0.435,0.544c0.19,0.148 0.365,0.572 0.608,0.631c0.177,0.042 0.384,-0.104 0.543,-0.143c0.18,-0.043 0.397,0.01 0.571,-0.053c0.222,-0.079 0.127,-0.337 0.288,-0.45c0.104,-0.074 0.287,-0.01 0.406,-0.051c0.2,-0.069 0.339,-0.263 0.376,-0.46c0.016,-0.082 0.01,-0.145 0.039,-0.221c0.039,-0.103 0.111,-0.16 0.09,-0.293c-0.01,-0.062 -0.052,-0.12 -0.064,-0.187c-0.022,-0.114 0.002,-0.224 0,-0.337c-0.003,-0.2 0.017,-0.379 -0.078,-0.55c-0.38,-0.688 -1.236,-0.929 -1.975,-0.789c-0.18,0.034 -0.287,0.126 -0.442,0.207c-0.17,0.088 -0.139,0.166 -0.318,0.224c-0.081,0.026 -0.216,0.124 -0.215,0.224c0.001,0.115 0.005,0.051 0.012,0.169c-0.021,0.011 -0.021,-0.005 -0.03,-0.025"/>
      <path id="svg_66" fill="#FFFFFF" d="m8.156,-41.042c0.018,0.072 0.007,0.127 -0.026,0.19c-0.053,0.101 -0.112,0.063 -0.165,0.128c-0.05,0.063 -0.099,0.276 -0.079,0.362c-0.169,0.058 -0.009,0.227 -0.015,0.35c-0.002,0.05 -0.041,0.105 -0.045,0.161c-0.01,0.119 0.017,0.266 0.068,0.37c0.097,0.198 0.268,0.413 0.435,0.544c0.19,0.148 0.365,0.572 0.608,0.631c0.177,0.042 0.384,-0.104 0.543,-0.143c0.18,-0.043 0.397,0.01 0.571,-0.053c0.222,-0.079 0.127,-0.337 0.288,-0.45c0.104,-0.074 0.287,-0.01 0.406,-0.051c0.2,-0.069 0.339,-0.263 0.376,-0.46c0.016,-0.082 0.01,-0.145 0.039,-0.221c0.039,-0.103 0.111,-0.16 0.09,-0.293c-0.01,-0.062 -0.052,-0.12 -0.064,-0.187c-0.022,-0.114 0.002,-0.224 0,-0.337c-0.003,-0.2 0.017,-0.379 -0.078,-0.55c-0.38,-0.688 -1.236,-0.929 -1.975,-0.789c-0.18,0.034 -0.287,0.126 -0.442,0.207c-0.17,0.088 -0.139,0.166 -0.318,0.224c-0.081,0.026 -0.216,0.124 -0.215,0.224c0.001,0.115 0.005,0.051 0.012,0.169c-0.02,0.012 -0.021,-0.004 -0.03,-0.024"/>
      <path id="svg_67" fill="#FFFFFF" d="m0.495,-41.042c0.018,0.072 0.007,0.127 -0.026,0.19c-0.053,0.101 -0.112,0.063 -0.165,0.128c-0.05,0.063 -0.099,0.276 -0.079,0.362c-0.169,0.058 -0.01,0.227 -0.015,0.35c-0.002,0.05 -0.041,0.105 -0.045,0.161c-0.01,0.119 0.017,0.266 0.068,0.37c0.097,0.198 0.268,0.413 0.435,0.544c0.19,0.148 0.365,0.572 0.608,0.631c0.177,0.042 0.384,-0.104 0.543,-0.143c0.18,-0.043 0.397,0.01 0.571,-0.053c0.222,-0.079 0.127,-0.337 0.288,-0.45c0.104,-0.074 0.287,-0.01 0.406,-0.051c0.2,-0.069 0.339,-0.263 0.376,-0.46c0.016,-0.082 0.01,-0.145 0.039,-0.221c0.039,-0.103 0.111,-0.16 0.09,-0.293c-0.01,-0.062 -0.052,-0.12 -0.064,-0.187c-0.022,-0.114 0.002,-0.224 0,-0.337c-0.003,-0.2 0.017,-0.379 -0.078,-0.55c-0.38,-0.688 -1.236,-0.929 -1.975,-0.789c-0.18,0.034 -0.287,0.126 -0.442,0.207c-0.17,0.088 -0.139,0.166 -0.318,0.224c-0.081,0.026 -0.216,0.124 -0.215,0.224c0.001,0.115 0.005,0.051 0.012,0.169c-0.021,0.011 -0.021,-0.005 -0.03,-0.025"/>
     </g>
     <g id="svg_68">
      <path id="svg_69" fill="#FFFFFF" d="m69.439,-33.39c0.018,0.072 0.007,0.127 -0.026,0.19c-0.053,0.101 -0.112,0.063 -0.165,0.128c-0.05,0.063 -0.099,0.276 -0.079,0.362c-0.169,0.058 -0.01,0.227 -0.015,0.35c-0.002,0.05 -0.041,0.105 -0.045,0.161c-0.01,0.119 0.017,0.266 0.068,0.37c0.097,0.198 0.268,0.413 0.435,0.544c0.19,0.148 0.365,0.572 0.608,0.631c0.177,0.042 0.384,-0.104 0.543,-0.143c0.18,-0.043 0.397,0.01 0.571,-0.053c0.222,-0.079 0.127,-0.337 0.288,-0.45c0.104,-0.074 0.287,-0.01 0.406,-0.051c0.2,-0.069 0.339,-0.263 0.376,-0.46c0.016,-0.082 0.01,-0.145 0.039,-0.221c0.039,-0.103 0.111,-0.16 0.09,-0.293c-0.01,-0.062 -0.052,-0.12 -0.064,-0.187c-0.022,-0.114 0.002,-0.224 0,-0.337c-0.003,-0.2 0.017,-0.379 -0.078,-0.55c-0.38,-0.688 -1.236,-0.929 -1.975,-0.789c-0.18,0.034 -0.287,0.126 -0.442,0.207c-0.17,0.088 -0.139,0.166 -0.318,0.224c-0.081,0.026 -0.216,0.124 -0.215,0.224c0.001,0.115 0.005,0.051 0.012,0.169c-0.021,0.011 -0.021,-0.005 -0.03,-0.025"/>
      <path id="svg_70" fill="#FFFFFF" d="m61.778,-33.39c0.018,0.072 0.007,0.127 -0.026,0.19c-0.053,0.101 -0.112,0.063 -0.165,0.128c-0.05,0.063 -0.099,0.276 -0.079,0.362c-0.169,0.058 -0.009,0.227 -0.015,0.35c-0.002,0.05 -0.041,0.105 -0.045,0.161c-0.01,0.119 0.017,0.266 0.068,0.37c0.097,0.198 0.268,0.413 0.435,0.544c0.19,0.148 0.365,0.572 0.608,0.631c0.177,0.042 0.384,-0.104 0.543,-0.143c0.18,-0.043 0.397,0.01 0.571,-0.053c0.222,-0.079 0.127,-0.337 0.288,-0.45c0.104,-0.074 0.287,-0.01 0.406,-0.051c0.2,-0.069 0.339,-0.263 0.376,-0.46c0.016,-0.082 0.01,-0.145 0.039,-0.221c0.039,-0.103 0.111,-0.16 0.09,-0.293c-0.01,-0.062 -0.052,-0.12 -0.064,-0.187c-0.022,-0.114 0.002,-0.224 0,-0.337c-0.003,-0.2 0.017,-0.379 -0.078,-0.55c-0.38,-0.688 -1.236,-0.929 -1.975,-0.789c-0.18,0.034 -0.287,0.126 -0.442,0.207c-0.17,0.088 -0.139,0.166 -0.318,0.224c-0.081,0.026 -0.216,0.124 -0.215,0.224c0.001,0.115 0.005,0.051 0.012,0.169c-0.021,0.011 -0.021,-0.005 -0.03,-0.025"/>
      <path id="svg_71" fill="#FFFFFF" d="m54.118,-33.39c0.018,0.072 0.007,0.127 -0.026,0.19c-0.053,0.101 -0.112,0.063 -0.165,0.128c-0.05,0.063 -0.099,0.276 -0.079,0.362c-0.169,0.058 -0.009,0.227 -0.015,0.35c-0.002,0.05 -0.041,0.105 -0.045,0.161c-0.01,0.119 0.017,0.266 0.068,0.37c0.097,0.198 0.268,0.413 0.435,0.544c0.19,0.148 0.365,0.572 0.608,0.631c0.177,0.042 0.384,-0.104 0.543,-0.143c0.18,-0.043 0.397,0.01 0.571,-0.053c0.222,-0.079 0.127,-0.337 0.288,-0.45c0.104,-0.074 0.287,-0.01 0.406,-0.051c0.2,-0.069 0.339,-0.263 0.376,-0.46c0.016,-0.082 0.01,-0.145 0.039,-0.221c0.039,-0.103 0.111,-0.16 0.09,-0.293c-0.01,-0.062 -0.052,-0.12 -0.064,-0.187c-0.022,-0.114 0.002,-0.224 0,-0.337c-0.003,-0.2 0.017,-0.379 -0.078,-0.55c-0.38,-0.688 -1.236,-0.929 -1.975,-0.789c-0.18,0.034 -0.287,0.126 -0.442,0.207c-0.17,0.088 -0.139,0.166 -0.318,0.224c-0.081,0.026 -0.216,0.124 -0.215,0.224c0.001,0.115 0.005,0.051 0.012,0.169c-0.021,0.011 -0.021,-0.005 -0.03,-0.025"/>
      <path id="svg_72" fill="#FFFFFF" d="m46.458,-33.39c0.018,0.072 0.007,0.127 -0.026,0.19c-0.053,0.101 -0.112,0.063 -0.165,0.128c-0.05,0.063 -0.099,0.276 -0.079,0.362c-0.169,0.058 -0.009,0.227 -0.015,0.35c-0.002,0.05 -0.041,0.105 -0.045,0.161c-0.01,0.119 0.017,0.266 0.068,0.37c0.097,0.198 0.268,0.413 0.435,0.544c0.19,0.148 0.365,0.572 0.608,0.631c0.177,0.042 0.384,-0.104 0.543,-0.143c0.18,-0.043 0.397,0.01 0.571,-0.053c0.222,-0.079 0.127,-0.337 0.288,-0.45c0.104,-0.074 0.287,-0.01 0.406,-0.051c0.2,-0.069 0.339,-0.263 0.376,-0.46c0.016,-0.082 0.01,-0.145 0.039,-0.221c0.039,-0.103 0.111,-0.16 0.09,-0.293c-0.01,-0.062 -0.052,-0.12 -0.064,-0.187c-0.022,-0.114 0.002,-0.224 0,-0.337c-0.003,-0.2 0.017,-0.379 -0.078,-0.55c-0.38,-0.688 -1.236,-0.929 -1.975,-0.789c-0.18,0.034 -0.287,0.126 -0.442,0.207c-0.17,0.088 -0.139,0.166 -0.318,0.224c-0.081,0.026 -0.216,0.124 -0.215,0.224c0.001,0.115 0.005,0.051 0.012,0.169c-0.021,0.011 -0.021,-0.005 -0.03,-0.025"/>
      <path id="svg_73" fill="#FFFFFF" d="m38.797,-33.39c0.018,0.072 0.007,0.127 -0.026,0.19c-0.053,0.101 -0.112,0.063 -0.165,0.128c-0.05,0.063 -0.099,0.276 -0.079,0.362c-0.169,0.058 -0.009,0.227 -0.015,0.35c-0.002,0.05 -0.041,0.105 -0.045,0.161c-0.01,0.119 0.017,0.266 0.068,0.37c0.097,0.198 0.268,0.413 0.435,0.544c0.19,0.148 0.365,0.572 0.608,0.631c0.177,0.042 0.384,-0.104 0.543,-0.143c0.18,-0.043 0.397,0.01 0.571,-0.053c0.222,-0.079 0.127,-0.337 0.288,-0.45c0.104,-0.074 0.287,-0.01 0.406,-0.051c0.2,-0.069 0.339,-0.263 0.376,-0.46c0.016,-0.082 0.01,-0.145 0.039,-0.221c0.039,-0.103 0.111,-0.16 0.09,-0.293c-0.01,-0.062 -0.052,-0.12 -0.064,-0.187c-0.022,-0.114 0.002,-0.224 0,-0.337c-0.003,-0.2 0.017,-0.379 -0.078,-0.55c-0.38,-0.688 -1.236,-0.929 -1.975,-0.789c-0.18,0.034 -0.287,0.126 -0.442,0.207c-0.17,0.088 -0.139,0.166 -0.318,0.224c-0.081,0.026 -0.216,0.124 -0.215,0.224c0.001,0.115 0.005,0.051 0.012,0.169c-0.021,0.011 -0.021,-0.005 -0.03,-0.025"/>
      <path id="svg_74" fill="#FFFFFF" d="m31.137,-33.39c0.018,0.072 0.007,0.127 -0.026,0.19c-0.053,0.101 -0.112,0.063 -0.165,0.128c-0.05,0.063 -0.099,0.276 -0.079,0.362c-0.169,0.058 -0.009,0.227 -0.015,0.35c-0.002,0.05 -0.041,0.105 -0.045,0.161c-0.01,0.119 0.017,0.266 0.068,0.37c0.097,0.198 0.268,0.413 0.435,0.544c0.19,0.148 0.365,0.572 0.608,0.631c0.177,0.042 0.384,-0.104 0.543,-0.143c0.18,-0.043 0.397,0.01 0.571,-0.053c0.222,-0.079 0.127,-0.337 0.288,-0.45c0.104,-0.074 0.287,-0.01 0.406,-0.051c0.2,-0.069 0.339,-0.263 0.376,-0.46c0.016,-0.082 0.01,-0.145 0.039,-0.221c0.039,-0.103 0.111,-0.16 0.09,-0.293c-0.01,-0.062 -0.052,-0.12 -0.064,-0.187c-0.022,-0.114 0.002,-0.224 0,-0.337c-0.003,-0.2 0.017,-0.379 -0.078,-0.55c-0.38,-0.688 -1.236,-0.929 -1.975,-0.789c-0.18,0.034 -0.287,0.126 -0.442,0.207c-0.17,0.088 -0.139,0.166 -0.318,0.224c-0.081,0.026 -0.216,0.124 -0.215,0.224c0.001,0.115 0.005,0.051 0.012,0.169c-0.021,0.011 -0.021,-0.005 -0.03,-0.025"/>
      <path id="svg_75" fill="#FFFFFF" d="m23.477,-33.39c0.018,0.072 0.007,0.127 -0.026,0.19c-0.053,0.101 -0.112,0.063 -0.165,0.128c-0.05,0.063 -0.099,0.276 -0.079,0.362c-0.169,0.058 -0.009,0.227 -0.015,0.35c-0.002,0.05 -0.041,0.105 -0.045,0.161c-0.01,0.119 0.017,0.266 0.068,0.37c0.097,0.198 0.268,0.413 0.435,0.544c0.19,0.148 0.365,0.572 0.608,0.631c0.177,0.042 0.384,-0.104 0.543,-0.143c0.18,-0.043 0.397,0.01 0.571,-0.053c0.222,-0.079 0.127,-0.337 0.288,-0.45c0.104,-0.074 0.287,-0.01 0.406,-0.051c0.2,-0.069 0.339,-0.263 0.376,-0.46c0.016,-0.082 0.01,-0.145 0.039,-0.221c0.039,-0.103 0.111,-0.16 0.09,-0.293c-0.01,-0.062 -0.052,-0.12 -0.064,-0.187c-0.022,-0.114 0.002,-0.224 0,-0.337c-0.003,-0.2 0.017,-0.379 -0.078,-0.55c-0.38,-0.688 -1.236,-0.929 -1.975,-0.789c-0.18,0.034 -0.287,0.126 -0.442,0.207c-0.17,0.088 -0.139,0.166 -0.318,0.224c-0.081,0.026 -0.216,0.124 -0.215,0.224c0.001,0.115 0.005,0.051 0.012,0.169c-0.021,0.011 -0.021,-0.005 -0.03,-0.025"/>
      <path id="svg_76" fill="#FFFFFF" d="m15.816,-33.39c0.018,0.072 0.007,0.127 -0.026,0.19c-0.053,0.101 -0.112,0.063 -0.165,0.128c-0.05,0.063 -0.099,0.276 -0.079,0.362c-0.169,0.058 -0.009,0.227 -0.015,0.35c-0.002,0.05 -0.041,0.105 -0.045,0.161c-0.01,0.119 0.017,0.266 0.068,0.37c0.097,0.198 0.268,0.413 0.435,0.544c0.19,0.148 0.365,0.572 0.608,0.631c0.177,0.042 0.384,-0.104 0.543,-0.143c0.18,-0.043 0.397,0.01 0.571,-0.053c0.222,-0.079 0.127,-0.337 0.288,-0.45c0.104,-0.074 0.287,-0.01 0.406,-0.051c0.2,-0.069 0.339,-0.263 0.376,-0.46c0.016,-0.082 0.01,-0.145 0.039,-0.221c0.039,-0.103 0.111,-0.16 0.09,-0.293c-0.01,-0.062 -0.052,-0.12 -0.064,-0.187c-0.022,-0.114 0.002,-0.224 0,-0.337c-0.003,-0.2 0.017,-0.379 -0.078,-0.55c-0.38,-0.688 -1.236,-0.929 -1.975,-0.789c-0.18,0.034 -0.287,0.126 -0.442,0.207c-0.17,0.088 -0.139,0.166 -0.318,0.224c-0.081,0.026 -0.216,0.124 -0.215,0.224c0.001,0.115 0.005,0.051 0.012,0.169c-0.021,0.011 -0.021,-0.005 -0.03,-0.025"/>
      <path id="svg_77" fill="#FFFFFF" d="m8.156,-33.39c0.018,0.072 0.007,0.127 -0.026,0.19c-0.053,0.101 -0.112,0.063 -0.165,0.128c-0.05,0.063 -0.099,0.276 -0.079,0.362c-0.169,0.058 -0.009,0.227 -0.015,0.35c-0.002,0.05 -0.041,0.105 -0.045,0.161c-0.01,0.119 0.017,0.266 0.068,0.37c0.097,0.198 0.268,0.413 0.435,0.544c0.19,0.148 0.365,0.572 0.608,0.631c0.177,0.042 0.384,-0.104 0.543,-0.143c0.18,-0.043 0.397,0.01 0.571,-0.053c0.222,-0.079 0.127,-0.337 0.288,-0.45c0.104,-0.074 0.287,-0.01 0.406,-0.051c0.2,-0.069 0.339,-0.263 0.376,-0.46c0.016,-0.082 0.01,-0.145 0.039,-0.221c0.039,-0.103 0.111,-0.16 0.09,-0.293c-0.01,-0.062 -0.052,-0.12 -0.064,-0.187c-0.022,-0.114 0.002,-0.224 0,-0.337c-0.003,-0.2 0.017,-0.379 -0.078,-0.55c-0.38,-0.688 -1.236,-0.929 -1.975,-0.789c-0.18,0.034 -0.287,0.126 -0.442,0.207c-0.17,0.088 -0.139,0.166 -0.318,0.224c-0.081,0.026 -0.216,0.124 -0.215,0.224c0.001,0.115 0.005,0.051 0.012,0.169c-0.021,0.011 -0.021,-0.005 -0.03,-0.025"/>
      <path id="svg_78" fill="#FFFFFF" d="m0.495,-33.39c0.018,0.072 0.007,0.127 -0.026,0.19c-0.053,0.101 -0.112,0.063 -0.165,0.128c-0.05,0.063 -0.099,0.276 -0.079,0.362c-0.169,0.058 -0.01,0.227 -0.015,0.35c-0.002,0.05 -0.041,0.105 -0.045,0.161c-0.01,0.119 0.017,0.266 0.068,0.37c0.097,0.198 0.268,0.413 0.435,0.544c0.19,0.148 0.365,0.572 0.608,0.631c0.177,0.042 0.384,-0.104 0.543,-0.143c0.18,-0.043 0.397,0.01 0.571,-0.053c0.222,-0.079 0.127,-0.337 0.288,-0.45c0.104,-0.074 0.287,-0.01 0.406,-0.051c0.2,-0.069 0.339,-0.263 0.376,-0.46c0.016,-0.082 0.01,-0.145 0.039,-0.221c0.039,-0.103 0.111,-0.16 0.09,-0.293c-0.01,-0.062 -0.052,-0.12 -0.064,-0.187c-0.022,-0.114 0.002,-0.224 0,-0.337c-0.003,-0.2 0.017,-0.379 -0.078,-0.55c-0.38,-0.688 -1.236,-0.929 -1.975,-0.789c-0.18,0.034 -0.287,0.126 -0.442,0.207c-0.17,0.088 -0.139,0.166 -0.318,0.224c-0.081,0.026 -0.216,0.124 -0.215,0.224c0.003,0.117 0.006,0.053 0.013,0.171c-0.021,0.011 -0.021,-0.005 -0.03,-0.025"/>
     </g>
     <g id="svg_79">
      <path id="svg_80" fill="#FFFFFF" d="m69.439,-25.736c0.018,0.072 0.007,0.127 -0.026,0.19c-0.053,0.101 -0.112,0.063 -0.165,0.128c-0.05,0.063 -0.099,0.276 -0.079,0.362c-0.169,0.058 -0.01,0.227 -0.015,0.35c-0.002,0.05 -0.041,0.105 -0.045,0.161c-0.01,0.119 0.017,0.266 0.068,0.37c0.097,0.198 0.268,0.413 0.435,0.544c0.19,0.148 0.365,0.572 0.608,0.631c0.177,0.042 0.384,-0.104 0.543,-0.143c0.18,-0.043 0.397,0.01 0.571,-0.053c0.222,-0.079 0.127,-0.337 0.288,-0.45c0.104,-0.074 0.287,-0.01 0.406,-0.051c0.2,-0.069 0.339,-0.263 0.376,-0.46c0.016,-0.082 0.01,-0.145 0.039,-0.221c0.039,-0.103 0.111,-0.16 0.09,-0.293c-0.01,-0.062 -0.052,-0.12 -0.064,-0.187c-0.022,-0.114 0.002,-0.224 0,-0.337c-0.003,-0.2 0.017,-0.379 -0.078,-0.55c-0.38,-0.688 -1.236,-0.929 -1.975,-0.789c-0.18,0.034 -0.287,0.126 -0.442,0.207c-0.17,0.088 -0.139,0.166 -0.318,0.224c-0.081,0.026 -0.216,0.124 -0.215,0.224c0.001,0.115 0.005,0.051 0.012,0.169c-0.021,0.011 -0.021,-0.005 -0.03,-0.025"/>
      <path id="svg_81" fill="#FFFFFF" d="m61.778,-25.736c0.018,0.072 0.007,0.127 -0.026,0.19c-0.053,0.101 -0.112,0.063 -0.165,0.128c-0.05,0.063 -0.099,0.276 -0.079,0.362c-0.169,0.058 -0.009,0.227 -0.015,0.35c-0.002,0.05 -0.041,0.105 -0.045,0.161c-0.01,0.119 0.017,0.266 0.068,0.37c0.097,0.198 0.268,0.413 0.435,0.544c0.19,0.148 0.365,0.572 0.608,0.631c0.177,0.042 0.384,-0.104 0.543,-0.143c0.18,-0.043 0.397,0.01 0.571,-0.053c0.222,-0.079 0.127,-0.337 0.288,-0.45c0.104,-0.074 0.287,-0.01 0.406,-0.051c0.2,-0.069 0.339,-0.263 0.376,-0.46c0.016,-0.082 0.01,-0.145 0.039,-0.221c0.039,-0.103 0.111,-0.16 0.09,-0.293c-0.01,-0.062 -0.052,-0.12 -0.064,-0.187c-0.022,-0.114 0.002,-0.224 0,-0.337c-0.003,-0.2 0.017,-0.379 -0.078,-0.55c-0.38,-0.688 -1.236,-0.929 -1.975,-0.789c-0.18,0.034 -0.287,0.126 -0.442,0.207c-0.17,0.088 -0.139,0.166 -0.318,0.224c-0.081,0.026 -0.216,0.124 -0.215,0.224c0.001,0.115 0.005,0.051 0.012,0.169c-0.021,0.011 -0.021,-0.005 -0.03,-0.025"/>
      <path id="svg_82" fill="#FFFFFF" d="m54.118,-25.736c0.018,0.072 0.007,0.127 -0.026,0.19c-0.053,0.101 -0.112,0.063 -0.165,0.128c-0.05,0.063 -0.099,0.276 -0.079,0.362c-0.169,0.058 -0.009,0.227 -0.015,0.35c-0.002,0.05 -0.041,0.105 -0.045,0.161c-0.01,0.119 0.017,0.266 0.068,0.37c0.097,0.198 0.268,0.413 0.435,0.544c0.19,0.148 0.365,0.572 0.608,0.631c0.177,0.042 0.384,-0.104 0.543,-0.143c0.18,-0.043 0.397,0.01 0.571,-0.053c0.222,-0.079 0.127,-0.337 0.288,-0.45c0.104,-0.074 0.287,-0.01 0.406,-0.051c0.2,-0.069 0.339,-0.263 0.376,-0.46c0.016,-0.082 0.01,-0.145 0.039,-0.221c0.039,-0.103 0.111,-0.16 0.09,-0.293c-0.01,-0.062 -0.052,-0.12 -0.064,-0.187c-0.022,-0.114 0.002,-0.224 0,-0.337c-0.003,-0.2 0.017,-0.379 -0.078,-0.55c-0.38,-0.688 -1.236,-0.929 -1.975,-0.789c-0.18,0.034 -0.287,0.126 -0.442,0.207c-0.17,0.088 -0.139,0.166 -0.318,0.224c-0.081,0.026 -0.216,0.124 -0.215,0.224c0.001,0.115 0.005,0.051 0.012,0.169c-0.021,0.011 -0.021,-0.005 -0.03,-0.025"/>
      <path id="svg_83" fill="#FFFFFF" d="m46.458,-25.736c0.018,0.072 0.007,0.127 -0.026,0.19c-0.053,0.101 -0.112,0.063 -0.165,0.128c-0.05,0.063 -0.099,0.276 -0.079,0.362c-0.169,0.058 -0.009,0.227 -0.015,0.35c-0.002,0.05 -0.041,0.105 -0.045,0.161c-0.01,0.119 0.017,0.266 0.068,0.37c0.097,0.198 0.268,0.413 0.435,0.544c0.19,0.148 0.365,0.572 0.608,0.631c0.177,0.042 0.384,-0.104 0.543,-0.143c0.18,-0.043 0.397,0.01 0.571,-0.053c0.222,-0.079 0.127,-0.337 0.288,-0.45c0.104,-0.074 0.287,-0.01 0.406,-0.051c0.2,-0.069 0.339,-0.263 0.376,-0.46c0.016,-0.082 0.01,-0.145 0.039,-0.221c0.039,-0.103 0.111,-0.16 0.09,-0.293c-0.01,-0.062 -0.052,-0.12 -0.064,-0.187c-0.022,-0.114 0.002,-0.224 0,-0.337c-0.003,-0.2 0.017,-0.379 -0.078,-0.55c-0.38,-0.688 -1.236,-0.929 -1.975,-0.789c-0.18,0.034 -0.287,0.126 -0.442,0.207c-0.17,0.088 -0.139,0.166 -0.318,0.224c-0.081,0.026 -0.216,0.124 -0.215,0.224c0.001,0.115 0.005,0.051 0.012,0.169c-0.021,0.011 -0.021,-0.005 -0.03,-0.025"/>
      <path id="svg_84" fill="#FFFFFF" d="m38.797,-25.736c0.018,0.072 0.007,0.127 -0.026,0.19c-0.053,0.101 -0.112,0.063 -0.165,0.128c-0.05,0.063 -0.099,0.276 -0.079,0.362c-0.169,0.058 -0.009,0.227 -0.015,0.35c-0.002,0.05 -0.041,0.105 -0.045,0.161c-0.01,0.119 0.017,0.266 0.068,0.37c0.097,0.198 0.268,0.413 0.435,0.544c0.19,0.148 0.365,0.572 0.608,0.631c0.177,0.042 0.384,-0.104 0.543,-0.143c0.18,-0.043 0.397,0.01 0.571,-0.053c0.222,-0.079 0.127,-0.337 0.288,-0.45c0.104,-0.074 0.287,-0.01 0.406,-0.051c0.2,-0.069 0.339,-0.263 0.376,-0.46c0.016,-0.082 0.01,-0.145 0.039,-0.221c0.039,-0.103 0.111,-0.16 0.09,-0.293c-0.01,-0.062 -0.052,-0.12 -0.064,-0.187c-0.022,-0.114 0.002,-0.224 0,-0.337c-0.003,-0.2 0.017,-0.379 -0.078,-0.55c-0.38,-0.688 -1.236,-0.929 -1.975,-0.789c-0.18,0.034 -0.287,0.126 -0.442,0.207c-0.17,0.088 -0.139,0.166 -0.318,0.224c-0.081,0.026 -0.216,0.124 -0.215,0.224c0.001,0.115 0.005,0.051 0.012,0.169c-0.021,0.011 -0.021,-0.005 -0.03,-0.025"/>
      <path id="svg_85" fill="#FFFFFF" d="m31.137,-25.736c0.018,0.072 0.007,0.127 -0.026,0.19c-0.053,0.101 -0.112,0.063 -0.165,0.128c-0.05,0.063 -0.099,0.276 -0.079,0.362c-0.169,0.058 -0.009,0.227 -0.015,0.35c-0.002,0.05 -0.041,0.105 -0.045,0.161c-0.01,0.119 0.017,0.266 0.068,0.37c0.097,0.198 0.268,0.413 0.435,0.544c0.19,0.148 0.365,0.572 0.608,0.631c0.177,0.042 0.384,-0.104 0.543,-0.143c0.18,-0.043 0.397,0.01 0.571,-0.053c0.222,-0.079 0.127,-0.337 0.288,-0.45c0.104,-0.074 0.287,-0.01 0.406,-0.051c0.2,-0.069 0.339,-0.263 0.376,-0.46c0.016,-0.082 0.01,-0.145 0.039,-0.221c0.039,-0.103 0.111,-0.16 0.09,-0.293c-0.01,-0.062 -0.052,-0.12 -0.064,-0.187c-0.022,-0.114 0.002,-0.224 0,-0.337c-0.003,-0.2 0.017,-0.379 -0.078,-0.55c-0.38,-0.688 -1.236,-0.929 -1.975,-0.789c-0.18,0.034 -0.287,0.126 -0.442,0.207c-0.17,0.088 -0.139,0.166 -0.318,0.224c-0.081,0.026 -0.216,0.124 -0.215,0.224c0.001,0.115 0.005,0.051 0.012,0.169c-0.021,0.011 -0.021,-0.005 -0.03,-0.025"/>
      <path id="svg_86" fill="#FFFFFF" d="m23.477,-25.736c0.018,0.072 0.007,0.127 -0.026,0.19c-0.053,0.101 -0.112,0.063 -0.165,0.128c-0.05,0.063 -0.099,0.276 -0.079,0.362c-0.169,0.058 -0.009,0.227 -0.015,0.35c-0.002,0.05 -0.041,0.105 -0.045,0.161c-0.01,0.119 0.017,0.266 0.068,0.37c0.097,0.198 0.268,0.413 0.435,0.544c0.19,0.148 0.365,0.572 0.608,0.631c0.177,0.042 0.384,-0.104 0.543,-0.143c0.18,-0.043 0.397,0.01 0.571,-0.053c0.222,-0.079 0.127,-0.337 0.288,-0.45c0.104,-0.074 0.287,-0.01 0.406,-0.051c0.2,-0.069 0.339,-0.263 0.376,-0.46c0.016,-0.082 0.01,-0.145 0.039,-0.221c0.039,-0.103 0.111,-0.16 0.09,-0.293c-0.01,-0.062 -0.052,-0.12 -0.064,-0.187c-0.022,-0.114 0.002,-0.224 0,-0.337c-0.003,-0.2 0.017,-0.379 -0.078,-0.55c-0.38,-0.688 -1.236,-0.929 -1.975,-0.789c-0.18,0.034 -0.287,0.126 -0.442,0.207c-0.17,0.088 -0.139,0.166 -0.318,0.224c-0.081,0.026 -0.216,0.124 -0.215,0.224c0.001,0.115 0.005,0.051 0.012,0.169c-0.021,0.011 -0.021,-0.005 -0.03,-0.025"/>
      <path id="svg_87" fill="#FFFFFF" d="m15.816,-25.736c0.018,0.072 0.007,0.127 -0.026,0.19c-0.053,0.101 -0.112,0.063 -0.165,0.128c-0.05,0.063 -0.099,0.276 -0.079,0.362c-0.169,0.058 -0.009,0.227 -0.015,0.35c-0.002,0.05 -0.041,0.105 -0.045,0.161c-0.01,0.119 0.017,0.266 0.068,0.37c0.097,0.198 0.268,0.413 0.435,0.544c0.19,0.148 0.365,0.572 0.608,0.631c0.177,0.042 0.384,-0.104 0.543,-0.143c0.18,-0.043 0.397,0.01 0.571,-0.053c0.222,-0.079 0.127,-0.337 0.288,-0.45c0.104,-0.074 0.287,-0.01 0.406,-0.051c0.2,-0.069 0.339,-0.263 0.376,-0.46c0.016,-0.082 0.01,-0.145 0.039,-0.221c0.039,-0.103 0.111,-0.16 0.09,-0.293c-0.01,-0.062 -0.052,-0.12 -0.064,-0.187c-0.022,-0.114 0.002,-0.224 0,-0.337c-0.003,-0.2 0.017,-0.379 -0.078,-0.55c-0.38,-0.688 -1.236,-0.929 -1.975,-0.789c-0.18,0.034 -0.287,0.126 -0.442,0.207c-0.17,0.088 -0.139,0.166 -0.318,0.224c-0.081,0.026 -0.216,0.124 -0.215,0.224c0.001,0.115 0.005,0.051 0.012,0.169c-0.021,0.011 -0.021,-0.005 -0.03,-0.025"/>
      <path id="svg_88" fill="#FFFFFF" d="m8.156,-25.736c0.018,0.072 0.007,0.127 -0.026,0.19c-0.053,0.101 -0.112,0.063 -0.165,0.128c-0.05,0.063 -0.099,0.276 -0.079,0.362c-0.169,0.058 -0.009,0.227 -0.015,0.35c-0.002,0.05 -0.041,0.105 -0.045,0.161c-0.01,0.119 0.017,0.266 0.068,0.37c0.097,0.198 0.268,0.413 0.435,0.544c0.19,0.148 0.365,0.572 0.608,0.631c0.177,0.042 0.384,-0.104 0.543,-0.143c0.18,-0.043 0.397,0.01 0.571,-0.053c0.222,-0.079 0.127,-0.337 0.288,-0.45c0.104,-0.074 0.287,-0.01 0.406,-0.051c0.2,-0.069 0.339,-0.263 0.376,-0.46c0.016,-0.082 0.01,-0.145 0.039,-0.221c0.039,-0.103 0.111,-0.16 0.09,-0.293c-0.01,-0.062 -0.052,-0.12 -0.064,-0.187c-0.022,-0.114 0.002,-0.224 0,-0.337c-0.003,-0.2 0.017,-0.379 -0.078,-0.55c-0.38,-0.688 -1.236,-0.929 -1.975,-0.789c-0.18,0.034 -0.287,0.126 -0.442,0.207c-0.17,0.088 -0.139,0.166 -0.318,0.224c-0.081,0.026 -0.216,0.124 -0.215,0.224c0.001,0.115 0.005,0.051 0.012,0.169c-0.021,0.011 -0.021,-0.005 -0.03,-0.025"/>
      <path id="svg_89" fill="#FFFFFF" d="m0.495,-25.736c0.018,0.072 0.007,0.127 -0.026,0.19c-0.053,0.101 -0.112,0.063 -0.165,0.128c-0.05,0.063 -0.099,0.276 -0.079,0.362c-0.169,0.058 -0.01,0.227 -0.015,0.35c-0.002,0.05 -0.041,0.105 -0.045,0.161c-0.01,0.119 0.017,0.266 0.068,0.37c0.097,0.198 0.268,0.413 0.435,0.544c0.19,0.148 0.365,0.572 0.608,0.631c0.177,0.042 0.384,-0.104 0.543,-0.143c0.18,-0.043 0.397,0.01 0.571,-0.053c0.222,-0.079 0.127,-0.337 0.288,-0.45c0.104,-0.074 0.287,-0.01 0.406,-0.051c0.2,-0.069 0.339,-0.263 0.376,-0.46c0.016,-0.082 0.01,-0.145 0.039,-0.221c0.039,-0.103 0.111,-0.16 0.09,-0.293c-0.01,-0.062 -0.052,-0.12 -0.064,-0.187c-0.022,-0.114 0.002,-0.224 0,-0.337c-0.003,-0.2 0.017,-0.379 -0.078,-0.55c-0.38,-0.688 -1.236,-0.929 -1.975,-0.789c-0.18,0.034 -0.287,0.126 -0.442,0.207c-0.17,0.088 -0.139,0.166 -0.318,0.224c-0.081,0.026 -0.216,0.124 -0.215,0.224c0.001,0.115 0.005,0.051 0.012,0.169c-0.021,0.011 -0.021,-0.005 -0.03,-0.025"/>
     </g>
     <g id="svg_90">
      <path id="svg_91" fill="#FFFFFF" d="m69.439,-18.084c0.018,0.072 0.007,0.127 -0.026,0.19c-0.053,0.101 -0.112,0.063 -0.165,0.128c-0.05,0.063 -0.099,0.276 -0.079,0.362c-0.169,0.058 -0.01,0.227 -0.015,0.35c-0.002,0.05 -0.041,0.105 -0.045,0.161c-0.01,0.119 0.017,0.266 0.068,0.37c0.097,0.198 0.268,0.413 0.435,0.544c0.19,0.148 0.365,0.572 0.608,0.631c0.177,0.042 0.384,-0.104 0.543,-0.143c0.18,-0.043 0.397,0.01 0.571,-0.053c0.222,-0.079 0.127,-0.337 0.288,-0.45c0.104,-0.074 0.287,-0.01 0.406,-0.051c0.2,-0.069 0.339,-0.263 0.376,-0.46c0.016,-0.082 0.01,-0.145 0.039,-0.221c0.039,-0.103 0.111,-0.16 0.09,-0.293c-0.01,-0.062 -0.052,-0.12 -0.064,-0.187c-0.022,-0.114 0.002,-0.224 0,-0.337c-0.003,-0.2 0.017,-0.379 -0.078,-0.55c-0.38,-0.688 -1.236,-0.929 -1.975,-0.789c-0.18,0.034 -0.287,0.126 -0.442,0.207c-0.17,0.088 -0.139,0.166 -0.318,0.224c-0.081,0.026 -0.216,0.124 -0.215,0.224c0.001,0.115 0.005,0.051 0.012,0.169c-0.021,0.011 -0.021,-0.005 -0.03,-0.025"/>
      <path id="svg_92" fill="#FFFFFF" d="m61.778,-18.084c0.018,0.072 0.007,0.127 -0.026,0.19c-0.053,0.101 -0.112,0.063 -0.165,0.128c-0.05,0.063 -0.099,0.276 -0.079,0.362c-0.169,0.058 -0.009,0.227 -0.015,0.35c-0.002,0.05 -0.041,0.105 -0.045,0.161c-0.01,0.119 0.017,0.266 0.068,0.37c0.097,0.198 0.268,0.413 0.435,0.544c0.19,0.148 0.365,0.572 0.608,0.631c0.177,0.042 0.384,-0.104 0.543,-0.143c0.18,-0.043 0.397,0.01 0.571,-0.053c0.222,-0.079 0.127,-0.337 0.288,-0.45c0.104,-0.074 0.287,-0.01 0.406,-0.051c0.2,-0.069 0.339,-0.263 0.376,-0.46c0.016,-0.082 0.01,-0.145 0.039,-0.221c0.039,-0.103 0.111,-0.16 0.09,-0.293c-0.01,-0.062 -0.052,-0.12 -0.064,-0.187c-0.022,-0.114 0.002,-0.224 0,-0.337c-0.003,-0.2 0.017,-0.379 -0.078,-0.55c-0.38,-0.688 -1.236,-0.929 -1.975,-0.789c-0.18,0.034 -0.287,0.126 -0.442,0.207c-0.17,0.088 -0.139,0.166 -0.318,0.224c-0.081,0.026 -0.216,0.124 -0.215,0.224c0.001,0.115 0.005,0.051 0.012,0.169c-0.021,0.011 -0.021,-0.005 -0.03,-0.025"/>
      <path id="svg_93" fill="#FFFFFF" d="m54.118,-18.084c0.018,0.072 0.007,0.127 -0.026,0.19c-0.053,0.101 -0.112,0.063 -0.165,0.128c-0.05,0.063 -0.099,0.276 -0.079,0.362c-0.169,0.058 -0.009,0.227 -0.015,0.35c-0.002,0.05 -0.041,0.105 -0.045,0.161c-0.01,0.119 0.017,0.266 0.068,0.37c0.097,0.198 0.268,0.413 0.435,0.544c0.19,0.148 0.365,0.572 0.608,0.631c0.177,0.042 0.384,-0.104 0.543,-0.143c0.18,-0.043 0.397,0.01 0.571,-0.053c0.222,-0.079 0.127,-0.337 0.288,-0.45c0.104,-0.074 0.287,-0.01 0.406,-0.051c0.2,-0.069 0.339,-0.263 0.376,-0.46c0.016,-0.082 0.01,-0.145 0.039,-0.221c0.039,-0.103 0.111,-0.16 0.09,-0.293c-0.01,-0.062 -0.052,-0.12 -0.064,-0.187c-0.022,-0.114 0.002,-0.224 0,-0.337c-0.003,-0.2 0.017,-0.379 -0.078,-0.55c-0.38,-0.688 -1.236,-0.929 -1.975,-0.789c-0.18,0.034 -0.287,0.126 -0.442,0.207c-0.17,0.088 -0.139,0.166 -0.318,0.224c-0.081,0.026 -0.216,0.124 -0.215,0.224c0.001,0.115 0.005,0.051 0.012,0.169c-0.021,0.011 -0.021,-0.005 -0.03,-0.025"/>
      <path id="svg_94" fill="#FFFFFF" d="m46.458,-18.084c0.018,0.072 0.007,0.127 -0.026,0.19c-0.053,0.101 -0.112,0.063 -0.165,0.128c-0.05,0.063 -0.099,0.276 -0.079,0.362c-0.169,0.058 -0.009,0.227 -0.015,0.35c-0.002,0.05 -0.041,0.105 -0.045,0.161c-0.01,0.119 0.017,0.266 0.068,0.37c0.097,0.198 0.268,0.413 0.435,0.544c0.19,0.148 0.365,0.572 0.608,0.631c0.177,0.042 0.384,-0.104 0.543,-0.143c0.18,-0.043 0.397,0.01 0.571,-0.053c0.222,-0.079 0.127,-0.337 0.288,-0.45c0.104,-0.074 0.287,-0.01 0.406,-0.051c0.2,-0.069 0.339,-0.263 0.376,-0.46c0.016,-0.082 0.01,-0.145 0.039,-0.221c0.039,-0.103 0.111,-0.16 0.09,-0.293c-0.01,-0.062 -0.052,-0.12 -0.064,-0.187c-0.022,-0.114 0.002,-0.224 0,-0.337c-0.003,-0.2 0.017,-0.379 -0.078,-0.55c-0.38,-0.688 -1.236,-0.929 -1.975,-0.789c-0.18,0.034 -0.287,0.126 -0.442,0.207c-0.17,0.088 -0.139,0.166 -0.318,0.224c-0.081,0.026 -0.216,0.124 -0.215,0.224c0.001,0.115 0.005,0.051 0.012,0.169c-0.021,0.011 -0.021,-0.005 -0.03,-0.025"/>
      <path id="svg_95" fill="#FFFFFF" d="m38.797,-18.084c0.018,0.072 0.007,0.127 -0.026,0.19c-0.053,0.101 -0.112,0.063 -0.165,0.128c-0.05,0.063 -0.099,0.276 -0.079,0.362c-0.169,0.058 -0.009,0.227 -0.015,0.35c-0.002,0.05 -0.041,0.105 -0.045,0.161c-0.01,0.119 0.017,0.266 0.068,0.37c0.097,0.198 0.268,0.413 0.435,0.544c0.19,0.148 0.365,0.572 0.608,0.631c0.177,0.042 0.384,-0.104 0.543,-0.143c0.18,-0.043 0.397,0.01 0.571,-0.053c0.222,-0.079 0.127,-0.337 0.288,-0.45c0.104,-0.074 0.287,-0.01 0.406,-0.051c0.2,-0.069 0.339,-0.263 0.376,-0.46c0.016,-0.082 0.01,-0.145 0.039,-0.221c0.039,-0.103 0.111,-0.16 0.09,-0.293c-0.01,-0.062 -0.052,-0.12 -0.064,-0.187c-0.022,-0.114 0.002,-0.224 0,-0.337c-0.003,-0.2 0.017,-0.379 -0.078,-0.55c-0.38,-0.688 -1.236,-0.929 -1.975,-0.789c-0.18,0.034 -0.287,0.126 -0.442,0.207c-0.17,0.088 -0.139,0.166 -0.318,0.224c-0.081,0.026 -0.216,0.124 -0.215,0.224c0.001,0.115 0.005,0.051 0.012,0.169c-0.021,0.011 -0.021,-0.005 -0.03,-0.025"/>
      <path id="svg_96" fill="#FFFFFF" d="m31.137,-18.084c0.018,0.072 0.007,0.127 -0.026,0.19c-0.053,0.101 -0.112,0.063 -0.165,0.128c-0.05,0.063 -0.099,0.276 -0.079,0.362c-0.169,0.058 -0.009,0.227 -0.015,0.35c-0.002,0.05 -0.041,0.105 -0.045,0.161c-0.01,0.119 0.017,0.266 0.068,0.37c0.097,0.198 0.268,0.413 0.435,0.544c0.19,0.148 0.365,0.572 0.608,0.631c0.177,0.042 0.384,-0.104 0.543,-0.143c0.18,-0.043 0.397,0.01 0.571,-0.053c0.222,-0.079 0.127,-0.337 0.288,-0.45c0.104,-0.074 0.287,-0.01 0.406,-0.051c0.2,-0.069 0.339,-0.263 0.376,-0.46c0.016,-0.082 0.01,-0.145 0.039,-0.221c0.039,-0.103 0.111,-0.16 0.09,-0.293c-0.01,-0.062 -0.052,-0.12 -0.064,-0.187c-0.022,-0.114 0.002,-0.224 0,-0.337c-0.003,-0.2 0.017,-0.379 -0.078,-0.55c-0.38,-0.688 -1.236,-0.929 -1.975,-0.789c-0.18,0.034 -0.287,0.126 -0.442,0.207c-0.17,0.088 -0.139,0.166 -0.318,0.224c-0.081,0.026 -0.216,0.124 -0.215,0.224c0.001,0.115 0.005,0.051 0.012,0.169c-0.021,0.011 -0.021,-0.005 -0.03,-0.025"/>
      <path id="svg_97" fill="#FFFFFF" d="m23.477,-18.084c0.018,0.072 0.007,0.127 -0.026,0.19c-0.053,0.101 -0.112,0.063 -0.165,0.128c-0.05,0.063 -0.099,0.276 -0.079,0.362c-0.169,0.058 -0.009,0.227 -0.015,0.35c-0.002,0.05 -0.041,0.105 -0.045,0.161c-0.01,0.119 0.017,0.266 0.068,0.37c0.097,0.198 0.268,0.413 0.435,0.544c0.19,0.148 0.365,0.572 0.608,0.631c0.177,0.042 0.384,-0.104 0.543,-0.143c0.18,-0.043 0.397,0.01 0.571,-0.053c0.222,-0.079 0.127,-0.337 0.288,-0.45c0.104,-0.074 0.287,-0.01 0.406,-0.051c0.2,-0.069 0.339,-0.263 0.376,-0.46c0.016,-0.082 0.01,-0.145 0.039,-0.221c0.039,-0.103 0.111,-0.16 0.09,-0.293c-0.01,-0.062 -0.052,-0.12 -0.064,-0.187c-0.022,-0.114 0.002,-0.224 0,-0.337c-0.003,-0.2 0.017,-0.379 -0.078,-0.55c-0.38,-0.688 -1.236,-0.929 -1.975,-0.789c-0.18,0.034 -0.287,0.126 -0.442,0.207c-0.17,0.088 -0.139,0.166 -0.318,0.224c-0.081,0.026 -0.216,0.124 -0.215,0.224c0.001,0.115 0.005,0.051 0.012,0.169c-0.021,0.011 -0.021,-0.005 -0.03,-0.025"/>
      <path id="svg_98" fill="#FFFFFF" d="m15.816,-18.084c0.018,0.072 0.007,0.127 -0.026,0.19c-0.053,0.101 -0.112,0.063 -0.165,0.128c-0.05,0.063 -0.099,0.276 -0.079,0.362c-0.169,0.058 -0.009,0.227 -0.015,0.35c-0.002,0.05 -0.041,0.105 -0.045,0.161c-0.01,0.119 0.017,0.266 0.068,0.37c0.097,0.198 0.268,0.413 0.435,0.544c0.19,0.148 0.365,0.572 0.608,0.631c0.177,0.042 0.384,-0.104 0.543,-0.143c0.18,-0.043 0.397,0.01 0.571,-0.053c0.222,-0.079 0.127,-0.337 0.288,-0.45c0.104,-0.074 0.287,-0.01 0.406,-0.051c0.2,-0.069 0.339,-0.263 0.376,-0.46c0.016,-0.082 0.01,-0.145 0.039,-0.221c0.039,-0.103 0.111,-0.16 0.09,-0.293c-0.01,-0.062 -0.052,-0.12 -0.064,-0.187c-0.022,-0.114 0.002,-0.224 0,-0.337c-0.003,-0.2 0.017,-0.379 -0.078,-0.55c-0.38,-0.688 -1.236,-0.929 -1.975,-0.789c-0.18,0.034 -0.287,0.126 -0.442,0.207c-0.17,0.088 -0.139,0.166 -0.318,0.224c-0.081,0.026 -0.216,0.124 -0.215,0.224c0.001,0.115 0.005,0.051 0.012,0.169c-0.021,0.011 -0.021,-0.005 -0.03,-0.025"/>
      <path id="svg_99" fill="#FFFFFF" d="m8.156,-18.084c0.018,0.072 0.007,0.127 -0.026,0.19c-0.053,0.101 -0.112,0.063 -0.165,0.128c-0.05,0.063 -0.099,0.276 -0.079,0.362c-0.169,0.058 -0.009,0.227 -0.015,0.35c-0.002,0.05 -0.041,0.105 -0.045,0.161c-0.01,0.119 0.017,0.266 0.068,0.37c0.097,0.198 0.268,0.413 0.435,0.544c0.19,0.148 0.365,0.572 0.608,0.631c0.177,0.042 0.384,-0.104 0.543,-0.143c0.18,-0.043 0.397,0.01 0.571,-0.053c0.222,-0.079 0.127,-0.337 0.288,-0.45c0.104,-0.074 0.287,-0.01 0.406,-0.051c0.2,-0.069 0.339,-0.263 0.376,-0.46c0.016,-0.082 0.01,-0.145 0.039,-0.221c0.039,-0.103 0.111,-0.16 0.09,-0.293c-0.01,-0.062 -0.052,-0.12 -0.064,-0.187c-0.022,-0.114 0.002,-0.224 0,-0.337c-0.003,-0.2 0.017,-0.379 -0.078,-0.55c-0.38,-0.688 -1.236,-0.929 -1.975,-0.789c-0.18,0.034 -0.287,0.126 -0.442,0.207c-0.17,0.088 -0.139,0.166 -0.318,0.224c-0.081,0.026 -0.216,0.124 -0.215,0.224c0.001,0.115 0.005,0.051 0.012,0.169c-0.021,0.011 -0.021,-0.005 -0.03,-0.025"/>
      <path id="svg_100" fill="#FFFFFF" d="m0.495,-18.084c0.018,0.072 0.007,0.127 -0.026,0.19c-0.053,0.101 -0.112,0.063 -0.165,0.128c-0.05,0.063 -0.099,0.276 -0.079,0.362c-0.169,0.058 -0.01,0.227 -0.015,0.35c-0.002,0.05 -0.041,0.105 -0.045,0.161c-0.01,0.119 0.017,0.266 0.068,0.37c0.097,0.198 0.268,0.413 0.435,0.544c0.19,0.148 0.365,0.572 0.608,0.631c0.177,0.042 0.384,-0.104 0.543,-0.143c0.18,-0.043 0.397,0.01 0.571,-0.053c0.222,-0.079 0.127,-0.337 0.288,-0.45c0.104,-0.074 0.287,-0.01 0.406,-0.051c0.2,-0.069 0.339,-0.263 0.376,-0.46c0.016,-0.082 0.01,-0.145 0.039,-0.221c0.039,-0.103 0.111,-0.16 0.09,-0.293c-0.01,-0.062 -0.052,-0.12 -0.064,-0.187c-0.022,-0.114 0.002,-0.224 0,-0.337c-0.003,-0.2 0.017,-0.379 -0.078,-0.55c-0.38,-0.688 -1.236,-0.929 -1.975,-0.789c-0.18,0.034 -0.287,0.126 -0.442,0.207c-0.17,0.088 -0.139,0.166 -0.318,0.224c-0.081,0.026 -0.216,0.124 -0.215,0.224c0.003,0.117 0.006,0.052 0.013,0.17c-0.021,0.011 -0.021,-0.005 -0.03,-0.025"/>
     </g>
     <g id="svg_101">
      <path id="svg_102" fill="#FFFFFF" d="m69.439,-10.431c0.018,0.072 0.007,0.127 -0.026,0.19c-0.053,0.101 -0.112,0.063 -0.165,0.128c-0.05,0.063 -0.099,0.276 -0.079,0.362c-0.169,0.059 -0.01,0.228 -0.015,0.351c-0.002,0.05 -0.041,0.105 -0.045,0.161c-0.01,0.119 0.017,0.266 0.068,0.37c0.097,0.198 0.268,0.413 0.435,0.544c0.19,0.148 0.365,0.572 0.608,0.631c0.177,0.042 0.384,-0.104 0.543,-0.143c0.18,-0.043 0.397,0.01 0.571,-0.053c0.222,-0.079 0.127,-0.337 0.288,-0.45c0.104,-0.074 0.287,-0.01 0.406,-0.051c0.2,-0.069 0.339,-0.263 0.376,-0.46c0.016,-0.082 0.01,-0.145 0.039,-0.221c0.039,-0.103 0.111,-0.16 0.09,-0.293c-0.01,-0.062 -0.052,-0.12 -0.064,-0.187c-0.022,-0.114 0.002,-0.224 0,-0.337c-0.003,-0.2 0.017,-0.379 -0.078,-0.55c-0.38,-0.688 -1.236,-0.929 -1.975,-0.789c-0.18,0.034 -0.287,0.126 -0.442,0.207c-0.17,0.088 -0.139,0.166 -0.318,0.224c-0.081,0.026 -0.216,0.124 -0.215,0.224c0.001,0.115 0.005,0.051 0.012,0.169c-0.021,0.011 -0.021,-0.005 -0.03,-0.025"/>
      <path id="svg_103" fill="#FFFFFF" d="m61.778,-10.431c0.018,0.072 0.007,0.127 -0.026,0.19c-0.053,0.101 -0.112,0.063 -0.165,0.128c-0.05,0.063 -0.099,0.276 -0.079,0.362c-0.169,0.058 -0.009,0.227 -0.015,0.35c-0.002,0.05 -0.041,0.105 -0.045,0.161c-0.01,0.119 0.017,0.266 0.068,0.37c0.097,0.198 0.268,0.413 0.435,0.544c0.19,0.148 0.365,0.572 0.608,0.631c0.177,0.042 0.384,-0.104 0.543,-0.143c0.18,-0.043 0.397,0.01 0.571,-0.053c0.222,-0.079 0.127,-0.337 0.288,-0.45c0.104,-0.074 0.287,-0.01 0.406,-0.051c0.2,-0.069 0.339,-0.263 0.376,-0.46c0.016,-0.082 0.01,-0.145 0.039,-0.221c0.039,-0.103 0.111,-0.16 0.09,-0.293c-0.01,-0.062 -0.052,-0.12 -0.064,-0.187c-0.022,-0.114 0.002,-0.224 0,-0.337c-0.003,-0.2 0.017,-0.379 -0.078,-0.55c-0.38,-0.688 -1.236,-0.929 -1.975,-0.789c-0.18,0.034 -0.287,0.126 -0.442,0.207c-0.17,0.088 -0.139,0.166 -0.318,0.224c-0.081,0.026 -0.216,0.124 -0.215,0.224c0.001,0.115 0.005,0.051 0.012,0.169c-0.021,0.011 -0.021,-0.005 -0.03,-0.025"/>
      <path id="svg_104" fill="#FFFFFF" d="m54.118,-10.431c0.018,0.072 0.007,0.127 -0.026,0.19c-0.053,0.101 -0.112,0.063 -0.165,0.128c-0.05,0.063 -0.099,0.276 -0.079,0.362c-0.169,0.058 -0.009,0.227 -0.015,0.35c-0.002,0.05 -0.041,0.105 -0.045,0.161c-0.01,0.119 0.017,0.266 0.068,0.37c0.097,0.198 0.268,0.413 0.435,0.544c0.19,0.148 0.365,0.572 0.608,0.631c0.177,0.042 0.384,-0.104 0.543,-0.143c0.18,-0.043 0.397,0.01 0.571,-0.053c0.222,-0.079 0.127,-0.337 0.288,-0.45c0.104,-0.074 0.287,-0.01 0.406,-0.051c0.2,-0.069 0.339,-0.263 0.376,-0.46c0.016,-0.082 0.01,-0.145 0.039,-0.221c0.039,-0.103 0.111,-0.16 0.09,-0.293c-0.01,-0.062 -0.052,-0.12 -0.064,-0.187c-0.022,-0.114 0.002,-0.224 0,-0.337c-0.003,-0.2 0.017,-0.379 -0.078,-0.55c-0.38,-0.688 -1.236,-0.929 -1.975,-0.789c-0.18,0.034 -0.287,0.126 -0.442,0.207c-0.17,0.088 -0.139,0.166 -0.318,0.224c-0.081,0.026 -0.216,0.124 -0.215,0.224c0.001,0.115 0.005,0.051 0.012,0.169c-0.021,0.011 -0.021,-0.005 -0.03,-0.025"/>
      <path id="svg_105" fill="#FFFFFF" d="m46.458,-10.431c0.018,0.072 0.007,0.127 -0.026,0.19c-0.053,0.101 -0.112,0.063 -0.165,0.128c-0.05,0.063 -0.099,0.276 -0.079,0.362c-0.169,0.058 -0.009,0.227 -0.015,0.35c-0.002,0.05 -0.041,0.105 -0.045,0.161c-0.01,0.119 0.017,0.266 0.068,0.37c0.097,0.198 0.268,0.413 0.435,0.544c0.19,0.148 0.365,0.572 0.608,0.631c0.177,0.042 0.384,-0.104 0.543,-0.143c0.18,-0.043 0.397,0.01 0.571,-0.053c0.222,-0.079 0.127,-0.337 0.288,-0.45c0.104,-0.074 0.287,-0.01 0.406,-0.051c0.2,-0.069 0.339,-0.263 0.376,-0.46c0.016,-0.082 0.01,-0.145 0.039,-0.221c0.039,-0.103 0.111,-0.16 0.09,-0.293c-0.01,-0.062 -0.052,-0.12 -0.064,-0.187c-0.022,-0.114 0.002,-0.224 0,-0.337c-0.003,-0.2 0.017,-0.379 -0.078,-0.55c-0.38,-0.688 -1.236,-0.929 -1.975,-0.789c-0.18,0.034 -0.287,0.126 -0.442,0.207c-0.17,0.088 -0.139,0.166 -0.318,0.224c-0.081,0.026 -0.216,0.124 -0.215,0.224c0.001,0.115 0.005,0.051 0.012,0.169c-0.021,0.011 -0.021,-0.005 -0.03,-0.025"/>
      <path id="svg_106" fill="#FFFFFF" d="m38.797,-10.431c0.018,0.072 0.007,0.127 -0.026,0.19c-0.053,0.101 -0.112,0.063 -0.165,0.128c-0.05,0.063 -0.099,0.276 -0.079,0.362c-0.169,0.058 -0.009,0.227 -0.015,0.35c-0.002,0.05 -0.041,0.105 -0.045,0.161c-0.01,0.119 0.017,0.266 0.068,0.37c0.097,0.198 0.268,0.413 0.435,0.544c0.19,0.148 0.365,0.572 0.608,0.631c0.177,0.042 0.384,-0.104 0.543,-0.143c0.18,-0.043 0.397,0.01 0.571,-0.053c0.222,-0.079 0.127,-0.337 0.288,-0.45c0.104,-0.074 0.287,-0.01 0.406,-0.051c0.2,-0.069 0.339,-0.263 0.376,-0.46c0.016,-0.082 0.01,-0.145 0.039,-0.221c0.039,-0.103 0.111,-0.16 0.09,-0.293c-0.01,-0.062 -0.052,-0.12 -0.064,-0.187c-0.022,-0.114 0.002,-0.224 0,-0.337c-0.003,-0.2 0.017,-0.379 -0.078,-0.55c-0.38,-0.688 -1.236,-0.929 -1.975,-0.789c-0.18,0.034 -0.287,0.126 -0.442,0.207c-0.17,0.088 -0.139,0.166 -0.318,0.224c-0.081,0.026 -0.216,0.124 -0.215,0.224c0.001,0.115 0.005,0.051 0.012,0.169c-0.021,0.011 -0.021,-0.005 -0.03,-0.025"/>
      <path id="svg_107" fill="#FFFFFF" d="m31.137,-10.431c0.018,0.072 0.007,0.127 -0.026,0.19c-0.053,0.101 -0.112,0.063 -0.165,0.128c-0.05,0.063 -0.099,0.276 -0.079,0.362c-0.169,0.058 -0.009,0.227 -0.015,0.35c-0.002,0.05 -0.041,0.105 -0.045,0.161c-0.01,0.119 0.017,0.266 0.068,0.37c0.097,0.198 0.268,0.413 0.435,0.544c0.19,0.148 0.365,0.572 0.608,0.631c0.177,0.042 0.384,-0.104 0.543,-0.143c0.18,-0.043 0.397,0.01 0.571,-0.053c0.222,-0.079 0.127,-0.337 0.288,-0.45c0.104,-0.074 0.287,-0.01 0.406,-0.051c0.2,-0.069 0.339,-0.263 0.376,-0.46c0.016,-0.082 0.01,-0.145 0.039,-0.221c0.039,-0.103 0.111,-0.16 0.09,-0.293c-0.01,-0.062 -0.052,-0.12 -0.064,-0.187c-0.022,-0.114 0.002,-0.224 0,-0.337c-0.003,-0.2 0.017,-0.379 -0.078,-0.55c-0.38,-0.688 -1.236,-0.929 -1.975,-0.789c-0.18,0.034 -0.287,0.126 -0.442,0.207c-0.17,0.088 -0.139,0.166 -0.318,0.224c-0.081,0.026 -0.216,0.124 -0.215,0.224c0.001,0.115 0.005,0.051 0.012,0.169c-0.021,0.011 -0.021,-0.005 -0.03,-0.025"/>
      <path id="svg_108" fill="#FFFFFF" d="m23.477,-10.431c0.018,0.072 0.007,0.127 -0.026,0.19c-0.053,0.101 -0.112,0.063 -0.165,0.128c-0.05,0.063 -0.099,0.276 -0.079,0.362c-0.169,0.058 -0.009,0.227 -0.015,0.35c-0.002,0.05 -0.041,0.105 -0.045,0.161c-0.01,0.119 0.017,0.266 0.068,0.37c0.097,0.198 0.268,0.413 0.435,0.544c0.19,0.148 0.365,0.572 0.608,0.631c0.177,0.042 0.384,-0.104 0.543,-0.143c0.18,-0.043 0.397,0.01 0.571,-0.053c0.222,-0.079 0.127,-0.337 0.288,-0.45c0.104,-0.074 0.287,-0.01 0.406,-0.051c0.2,-0.069 0.339,-0.263 0.376,-0.46c0.016,-0.082 0.01,-0.145 0.039,-0.221c0.039,-0.103 0.111,-0.16 0.09,-0.293c-0.01,-0.062 -0.052,-0.12 -0.064,-0.187c-0.022,-0.114 0.002,-0.224 0,-0.337c-0.003,-0.2 0.017,-0.379 -0.078,-0.55c-0.38,-0.688 -1.236,-0.929 -1.975,-0.789c-0.18,0.034 -0.287,0.126 -0.442,0.207c-0.17,0.088 -0.139,0.166 -0.318,0.224c-0.081,0.026 -0.216,0.124 -0.215,0.224c0.001,0.115 0.005,0.051 0.012,0.169c-0.021,0.011 -0.021,-0.005 -0.03,-0.025"/>
      <path id="svg_109" fill="#FFFFFF" d="m15.816,-10.431c0.018,0.072 0.007,0.127 -0.026,0.19c-0.053,0.101 -0.112,0.063 -0.165,0.128c-0.05,0.063 -0.099,0.276 -0.079,0.362c-0.169,0.058 -0.009,0.227 -0.015,0.35c-0.002,0.05 -0.041,0.105 -0.045,0.161c-0.01,0.119 0.017,0.266 0.068,0.37c0.097,0.198 0.268,0.413 0.435,0.544c0.19,0.148 0.365,0.572 0.608,0.631c0.177,0.042 0.384,-0.104 0.543,-0.143c0.18,-0.043 0.397,0.01 0.571,-0.053c0.222,-0.078 0.128,-0.336 0.289,-0.449c0.104,-0.074 0.287,-0.01 0.406,-0.051c0.2,-0.069 0.339,-0.263 0.376,-0.46c0.016,-0.082 0.01,-0.145 0.039,-0.221c0.039,-0.103 0.111,-0.16 0.09,-0.293c-0.01,-0.062 -0.052,-0.12 -0.064,-0.187c-0.022,-0.114 0.002,-0.224 0,-0.337c-0.003,-0.2 0.017,-0.379 -0.078,-0.55c-0.38,-0.688 -1.236,-0.929 -1.975,-0.789c-0.18,0.034 -0.287,0.126 -0.442,0.207c-0.17,0.088 -0.139,0.166 -0.318,0.224c-0.081,0.026 -0.216,0.124 -0.215,0.224c0.001,0.115 0.005,0.051 0.012,0.169c-0.021,0.011 -0.021,-0.005 -0.03,-0.025"/>
      <path id="svg_110" fill="#FFFFFF" d="m8.156,-10.431c0.018,0.072 0.007,0.127 -0.026,0.19c-0.053,0.101 -0.112,0.063 -0.165,0.128c-0.05,0.063 -0.099,0.277 -0.079,0.363c-0.169,0.058 -0.01,0.227 -0.015,0.35c-0.003,0.049 -0.041,0.105 -0.045,0.161c-0.01,0.119 0.017,0.266 0.068,0.37c0.097,0.198 0.268,0.413 0.435,0.544c0.19,0.148 0.365,0.572 0.608,0.631c0.177,0.042 0.384,-0.105 0.543,-0.143c0.18,-0.043 0.397,0.01 0.571,-0.053c0.222,-0.079 0.127,-0.337 0.288,-0.45c0.104,-0.074 0.287,-0.01 0.406,-0.051c0.2,-0.069 0.339,-0.263 0.376,-0.46c0.016,-0.082 0.01,-0.145 0.039,-0.221c0.039,-0.103 0.111,-0.16 0.09,-0.293c-0.01,-0.062 -0.052,-0.12 -0.064,-0.187c-0.022,-0.114 0.002,-0.224 0,-0.337c-0.003,-0.2 0.017,-0.379 -0.078,-0.55c-0.38,-0.688 -1.236,-0.929 -1.975,-0.789c-0.18,0.034 -0.287,0.126 -0.442,0.207c-0.17,0.088 -0.139,0.166 -0.318,0.224c-0.081,0.026 -0.216,0.124 -0.215,0.224c0.001,0.115 0.005,0.051 0.012,0.169c-0.021,0.011 -0.021,-0.005 -0.03,-0.025"/>
      <path id="svg_111" fill="#FFFFFF" d="m0.495,-10.431c0.018,0.072 0.007,0.127 -0.026,0.19c-0.053,0.101 -0.112,0.063 -0.165,0.128c-0.05,0.063 -0.099,0.277 -0.079,0.363c-0.169,0.058 -0.01,0.227 -0.015,0.35c-0.002,0.05 -0.041,0.105 -0.045,0.161c-0.01,0.119 0.017,0.266 0.068,0.37c0.097,0.198 0.268,0.413 0.435,0.544c0.19,0.148 0.365,0.572 0.608,0.631c0.178,0.042 0.384,-0.105 0.543,-0.143c0.181,-0.043 0.398,0.01 0.572,-0.053c0.222,-0.079 0.127,-0.337 0.288,-0.45c0.104,-0.074 0.287,-0.01 0.406,-0.051c0.2,-0.069 0.339,-0.263 0.376,-0.46c0.016,-0.082 0.01,-0.144 0.039,-0.22c0.039,-0.103 0.111,-0.16 0.09,-0.293c-0.01,-0.062 -0.052,-0.12 -0.064,-0.187c-0.022,-0.114 0.002,-0.224 0,-0.337c-0.003,-0.2 0.017,-0.379 -0.078,-0.55c-0.38,-0.688 -1.236,-0.929 -1.975,-0.789c-0.18,0.034 -0.287,0.126 -0.442,0.207c-0.17,0.088 -0.139,0.166 -0.318,0.224c-0.081,0.026 -0.216,0.124 -0.215,0.224c0.001,0.115 0.005,0.051 0.012,0.169c-0.021,0.011 -0.021,-0.005 -0.03,-0.025"/>
     </g>
    </g>
    <g id="svg_112">
     <path id="svg_113" fill="#FFFFFF" d="m69.439,-2.778c0.018,0.072 0.008,0.127 -0.026,0.19c-0.052,0.101 -0.113,0.063 -0.165,0.128c-0.051,0.063 -0.099,0.276 -0.079,0.362c-0.169,0.058 -0.01,0.227 -0.015,0.35c-0.002,0.05 -0.041,0.105 -0.045,0.161c-0.01,0.119 0.017,0.266 0.068,0.37c0.097,0.198 0.268,0.413 0.435,0.544c0.19,0.148 0.365,0.572 0.608,0.631c0.177,0.042 0.384,-0.104 0.543,-0.143c0.18,-0.043 0.397,0.01 0.571,-0.053c0.222,-0.079 0.127,-0.337 0.288,-0.45c0.104,-0.074 0.287,-0.01 0.406,-0.051c0.2,-0.07 0.339,-0.263 0.376,-0.46c0.016,-0.082 0.01,-0.145 0.039,-0.221c0.038,-0.103 0.111,-0.16 0.09,-0.293c-0.01,-0.062 -0.051,-0.12 -0.064,-0.187c-0.021,-0.114 0.002,-0.224 0,-0.337c-0.003,-0.2 0.017,-0.379 -0.078,-0.55c-0.38,-0.688 -1.236,-0.929 -1.975,-0.789c-0.18,0.034 -0.287,0.126 -0.442,0.207c-0.17,0.088 -0.139,0.166 -0.318,0.224c-0.081,0.026 -0.215,0.124 -0.215,0.224c0.002,0.115 0.005,0.051 0.012,0.169c-0.021,0.011 -0.021,-0.005 -0.03,-0.025"/>
     <path id="svg_114" fill="#FFFFFF" d="m61.778,-2.778c0.018,0.072 0.007,0.127 -0.026,0.19c-0.052,0.101 -0.112,0.063 -0.165,0.128c-0.05,0.063 -0.099,0.276 -0.079,0.362c-0.169,0.058 -0.01,0.227 -0.015,0.35c-0.002,0.05 -0.041,0.105 -0.045,0.161c-0.01,0.119 0.017,0.266 0.068,0.37c0.097,0.198 0.268,0.413 0.435,0.544c0.19,0.148 0.365,0.572 0.608,0.631c0.178,0.042 0.384,-0.104 0.544,-0.143c0.18,-0.043 0.397,0.01 0.571,-0.053c0.222,-0.079 0.127,-0.337 0.288,-0.45c0.104,-0.074 0.287,-0.01 0.406,-0.051c0.2,-0.069 0.339,-0.263 0.376,-0.46c0.016,-0.082 0.01,-0.145 0.039,-0.221c0.039,-0.103 0.111,-0.16 0.09,-0.293c-0.01,-0.062 -0.052,-0.12 -0.064,-0.187c-0.022,-0.114 0.002,-0.224 0,-0.337c-0.003,-0.2 0.017,-0.379 -0.078,-0.55c-0.38,-0.688 -1.236,-0.929 -1.975,-0.789c-0.18,0.034 -0.287,0.126 -0.442,0.207c-0.17,0.088 -0.139,0.166 -0.318,0.224c-0.081,0.028 -0.216,0.125 -0.215,0.225c0.001,0.115 0.005,0.051 0.012,0.169c-0.021,0.011 -0.021,-0.005 -0.03,-0.025"/>
     <path id="svg_115" fill="#FFFFFF" d="m54.118,-2.778c0.018,0.072 0.007,0.127 -0.026,0.19c-0.052,0.101 -0.112,0.063 -0.165,0.128c-0.05,0.063 -0.099,0.276 -0.079,0.362c-0.169,0.058 -0.01,0.227 -0.015,0.35c-0.002,0.05 -0.041,0.105 -0.045,0.161c-0.01,0.119 0.017,0.266 0.068,0.37c0.097,0.198 0.268,0.413 0.435,0.544c0.19,0.148 0.365,0.572 0.608,0.631c0.178,0.042 0.384,-0.104 0.543,-0.143c0.18,-0.043 0.397,0.01 0.571,-0.053c0.222,-0.079 0.127,-0.337 0.288,-0.45c0.104,-0.074 0.287,-0.01 0.406,-0.051c0.2,-0.069 0.339,-0.263 0.376,-0.46c0.016,-0.082 0.01,-0.145 0.039,-0.221c0.039,-0.103 0.111,-0.16 0.09,-0.293c-0.01,-0.062 -0.052,-0.12 -0.064,-0.187c-0.022,-0.114 0.002,-0.224 0,-0.337c-0.003,-0.2 0.017,-0.379 -0.078,-0.55c-0.38,-0.688 -1.236,-0.929 -1.975,-0.789c-0.18,0.034 -0.287,0.126 -0.442,0.207c-0.17,0.088 -0.139,0.166 -0.318,0.224c-0.08,0.028 -0.215,0.125 -0.214,0.225c0.001,0.115 0.005,0.051 0.012,0.169c-0.021,0.011 -0.021,-0.005 -0.03,-0.025"/>
     <path id="svg_116" fill="#FFFFFF" d="m46.458,-2.778c0.018,0.072 0.007,0.127 -0.026,0.19c-0.053,0.101 -0.112,0.063 -0.165,0.128c-0.05,0.063 -0.099,0.276 -0.079,0.362c-0.169,0.058 -0.01,0.227 -0.015,0.35c-0.002,0.05 -0.041,0.105 -0.045,0.161c-0.01,0.119 0.017,0.266 0.068,0.37c0.097,0.198 0.268,0.413 0.435,0.544c0.19,0.148 0.365,0.572 0.608,0.631c0.177,0.042 0.384,-0.104 0.543,-0.143c0.18,-0.043 0.397,0.01 0.571,-0.053c0.222,-0.079 0.127,-0.337 0.288,-0.45c0.104,-0.074 0.287,-0.01 0.406,-0.051c0.2,-0.069 0.339,-0.263 0.376,-0.46c0.016,-0.082 0.01,-0.145 0.039,-0.221c0.039,-0.103 0.111,-0.16 0.09,-0.293c-0.01,-0.062 -0.052,-0.12 -0.064,-0.187c-0.022,-0.114 0.002,-0.224 0,-0.337c-0.003,-0.2 0.017,-0.379 -0.078,-0.55c-0.38,-0.688 -1.236,-0.929 -1.975,-0.789c-0.18,0.034 -0.287,0.126 -0.442,0.207c-0.17,0.088 -0.139,0.166 -0.318,0.224c-0.081,0.028 -0.216,0.125 -0.215,0.225c0.001,0.115 0.005,0.051 0.012,0.169c-0.021,0.011 -0.021,-0.005 -0.03,-0.025"/>
     <path id="svg_117" fill="#FFFFFF" d="m38.797,-2.778c0.018,0.072 0.007,0.127 -0.026,0.19c-0.053,0.101 -0.112,0.063 -0.165,0.128c-0.05,0.063 -0.099,0.276 -0.079,0.362c-0.169,0.058 -0.01,0.227 -0.015,0.35c-0.002,0.05 -0.041,0.105 -0.045,0.161c-0.01,0.119 0.017,0.266 0.068,0.37c0.097,0.198 0.268,0.413 0.435,0.544c0.19,0.148 0.365,0.572 0.608,0.631c0.178,0.042 0.384,-0.104 0.544,-0.143c0.18,-0.043 0.397,0.01 0.571,-0.053c0.222,-0.079 0.127,-0.337 0.288,-0.45c0.104,-0.074 0.287,-0.01 0.406,-0.051c0.2,-0.069 0.339,-0.263 0.376,-0.46c0.016,-0.082 0.01,-0.145 0.039,-0.221c0.039,-0.103 0.111,-0.16 0.09,-0.293c-0.01,-0.062 -0.052,-0.12 -0.064,-0.187c-0.022,-0.114 0.002,-0.224 0,-0.337c-0.003,-0.2 0.017,-0.379 -0.078,-0.55c-0.38,-0.688 -1.236,-0.929 -1.975,-0.789c-0.18,0.034 -0.287,0.126 -0.442,0.207c-0.17,0.088 -0.139,0.166 -0.318,0.224c-0.081,0.028 -0.216,0.125 -0.215,0.225c0.001,0.115 0.005,0.051 0.012,0.169c-0.021,0.011 -0.021,-0.005 -0.03,-0.025"/>
     <path id="svg_118" fill="#FFFFFF" d="m31.137,-2.778c0.018,0.072 0.007,0.127 -0.026,0.19c-0.053,0.101 -0.112,0.063 -0.165,0.128c-0.05,0.063 -0.099,0.276 -0.079,0.362c-0.169,0.058 -0.01,0.227 -0.015,0.35c-0.002,0.05 -0.041,0.105 -0.045,0.161c-0.01,0.119 0.017,0.266 0.068,0.37c0.097,0.198 0.268,0.413 0.435,0.544c0.19,0.148 0.365,0.572 0.608,0.631c0.177,0.042 0.384,-0.104 0.543,-0.143c0.18,-0.043 0.397,0.01 0.571,-0.053c0.222,-0.079 0.127,-0.337 0.288,-0.45c0.104,-0.074 0.287,-0.01 0.406,-0.051c0.2,-0.069 0.339,-0.263 0.376,-0.46c0.016,-0.082 0.01,-0.145 0.039,-0.221c0.039,-0.103 0.111,-0.16 0.09,-0.293c-0.01,-0.062 -0.052,-0.12 -0.064,-0.187c-0.022,-0.114 0.002,-0.224 0,-0.337c-0.003,-0.2 0.017,-0.379 -0.078,-0.55c-0.38,-0.688 -1.236,-0.929 -1.975,-0.789c-0.18,0.034 -0.287,0.126 -0.442,0.207c-0.17,0.088 -0.139,0.166 -0.318,0.224c-0.081,0.028 -0.215,0.125 -0.214,0.225c0.001,0.115 0.005,0.051 0.012,0.169c-0.021,0.011 -0.021,-0.005 -0.03,-0.025"/>
     <path id="svg_119" fill="#FFFFFF" d="m23.477,-2.778c0.018,0.072 0.007,0.127 -0.026,0.19c-0.053,0.101 -0.112,0.063 -0.165,0.128c-0.05,0.063 -0.099,0.276 -0.079,0.362c-0.169,0.058 -0.01,0.227 -0.015,0.35c-0.002,0.05 -0.041,0.105 -0.045,0.161c-0.01,0.119 0.017,0.266 0.068,0.37c0.097,0.198 0.268,0.413 0.435,0.544c0.19,0.148 0.365,0.572 0.608,0.631c0.177,0.042 0.384,-0.104 0.543,-0.143c0.18,-0.043 0.397,0.01 0.571,-0.053c0.222,-0.079 0.127,-0.337 0.288,-0.45c0.104,-0.074 0.287,-0.01 0.406,-0.051c0.2,-0.069 0.339,-0.263 0.376,-0.46c0.016,-0.082 0.01,-0.145 0.039,-0.221c0.039,-0.103 0.111,-0.16 0.09,-0.293c-0.01,-0.062 -0.052,-0.12 -0.064,-0.187c-0.022,-0.114 0.002,-0.224 0,-0.337c-0.003,-0.2 0.017,-0.379 -0.078,-0.55c-0.38,-0.688 -1.236,-0.929 -1.975,-0.789c-0.18,0.034 -0.287,0.126 -0.442,0.207c-0.17,0.088 -0.139,0.166 -0.318,0.224c-0.081,0.026 -0.216,0.124 -0.215,0.224c0.001,0.115 0.005,0.051 0.012,0.169c-0.021,0.011 -0.021,-0.005 -0.03,-0.025"/>
     <path id="svg_120" fill="#FFFFFF" d="m15.816,-2.778c0.018,0.072 0.007,0.127 -0.026,0.19c-0.053,0.101 -0.112,0.063 -0.165,0.128c-0.05,0.063 -0.099,0.276 -0.079,0.362c-0.169,0.058 -0.01,0.227 -0.015,0.35c-0.002,0.05 -0.041,0.105 -0.045,0.161c-0.01,0.119 0.017,0.266 0.068,0.37c0.097,0.198 0.268,0.413 0.435,0.544c0.19,0.148 0.365,0.572 0.608,0.631c0.177,0.042 0.384,-0.104 0.543,-0.143c0.18,-0.043 0.397,0.01 0.571,-0.053c0.222,-0.079 0.127,-0.337 0.288,-0.45c0.104,-0.074 0.287,-0.01 0.406,-0.051c0.2,-0.069 0.339,-0.263 0.376,-0.46c0.016,-0.082 0.01,-0.145 0.039,-0.221c0.039,-0.103 0.111,-0.16 0.09,-0.293c-0.01,-0.062 -0.052,-0.12 -0.064,-0.187c-0.022,-0.114 0.002,-0.224 0,-0.337c-0.003,-0.2 0.017,-0.379 -0.078,-0.55c-0.38,-0.688 -1.236,-0.929 -1.975,-0.789c-0.18,0.034 -0.287,0.126 -0.442,0.207c-0.17,0.088 -0.139,0.166 -0.318,0.224c-0.081,0.026 -0.216,0.124 -0.215,0.224c0.001,0.115 0.005,0.051 0.012,0.169c-0.02,0.012 -0.021,-0.004 -0.03,-0.024"/>
     <path id="svg_121" fill="#FFFFFF" d="m8.156,-2.778c0.018,0.072 0.007,0.127 -0.026,0.19c-0.053,0.101 -0.112,0.063 -0.165,0.128c-0.05,0.063 -0.099,0.276 -0.079,0.362c-0.169,0.058 -0.01,0.227 -0.015,0.35c-0.003,0.05 -0.041,0.105 -0.045,0.161c-0.01,0.119 0.017,0.266 0.068,0.37c0.097,0.198 0.268,0.413 0.435,0.544c0.19,0.148 0.365,0.572 0.608,0.631c0.177,0.042 0.384,-0.104 0.543,-0.143c0.18,-0.043 0.397,0.01 0.571,-0.053c0.222,-0.079 0.127,-0.337 0.288,-0.45c0.104,-0.074 0.287,-0.01 0.406,-0.051c0.2,-0.069 0.339,-0.263 0.376,-0.46c0.016,-0.082 0.01,-0.145 0.039,-0.221c0.039,-0.103 0.111,-0.16 0.09,-0.293c-0.01,-0.062 -0.052,-0.12 -0.064,-0.187c-0.022,-0.114 0.002,-0.224 0,-0.337c-0.003,-0.2 0.017,-0.379 -0.078,-0.55c-0.38,-0.688 -1.236,-0.929 -1.975,-0.789c-0.179,0.036 -0.286,0.128 -0.441,0.209c-0.17,0.088 -0.139,0.166 -0.318,0.224c-0.082,0.026 -0.216,0.123 -0.215,0.223c0.001,0.115 0.005,0.051 0.011,0.169c-0.02,0.011 -0.021,-0.005 -0.03,-0.025"/>
     <path id="svg_122" fill="#FFFFFF" d="m0.495,-2.778c0.018,0.072 0.008,0.127 -0.026,0.19c-0.052,0.101 -0.113,0.063 -0.165,0.128c-0.051,0.063 -0.099,0.276 -0.079,0.362c-0.169,0.058 -0.01,0.227 -0.015,0.35c-0.002,0.05 -0.041,0.105 -0.045,0.161c-0.01,0.119 0.017,0.266 0.068,0.37c0.097,0.198 0.268,0.413 0.435,0.544c0.19,0.148 0.365,0.572 0.608,0.631c0.178,0.042 0.384,-0.104 0.543,-0.143c0.181,-0.043 0.398,0.01 0.572,-0.052c0.222,-0.079 0.127,-0.337 0.288,-0.45c0.104,-0.074 0.287,-0.01 0.406,-0.051c0.2,-0.07 0.339,-0.263 0.376,-0.46c0.016,-0.082 0.01,-0.145 0.039,-0.221c0.038,-0.103 0.111,-0.16 0.09,-0.293c-0.01,-0.062 -0.051,-0.12 -0.064,-0.187c-0.021,-0.114 0.002,-0.224 0,-0.337c-0.003,-0.2 0.017,-0.379 -0.078,-0.55c-0.38,-0.688 -1.236,-0.929 -1.975,-0.789c-0.18,0.035 -0.286,0.127 -0.442,0.208c-0.17,0.088 -0.139,0.166 -0.318,0.224c-0.081,0.026 -0.215,0.123 -0.215,0.223c0.002,0.115 0.005,0.051 0.012,0.169c-0.021,0.011 -0.022,-0.005 -0.031,-0.025"/>
    </g>
   </g>
  </pattern>
  <g id="svg_126">
   <path id="svg_123" d="m428.17938,273.97034c0,0 -0.21317,-0.30518 -9.91776,-11.39343l0,11.39343l9.91776,0z"/>
   <path id="svg_124" d="m426.57401,275.38864l0,1.59927l0.00626,0l0,56.80847c0,1.11786 -0.90942,2.02728 -2.02744,2.02728l-47.12204,0c-1.11801,0 -2.02744,-0.90942 -2.02744,-2.02728l0,-67.59277c0,-1.11801 0.90942,-2.02744 2.02744,-2.02744l37.85309,0l0,0.0029l1.59912,0l0,-1.60217l-39.45221,0c-1.99478,0 -3.62671,1.63193 -3.62671,3.62671l0,67.59277c0,1.99448 1.63193,3.62671 3.62671,3.62671l47.12204,0c1.99463,0 3.62671,-1.63208 3.62671,-3.62671l0,-58.40775l-1.60553,0z"/>
   <path id="svg_125" d="m371.82043,273.10547l0,12.51221l33.51852,0l0,-12.51221l-33.51852,0zm10.46143,3.42285l-4.16,0l0,2.03598l3.59085,0l0,1.45508l-3.59085,0l0,3.6554l-1.73676,0l0,-8.60153l5.89676,0l0,1.45508zm3.11554,7.14645l-1.73676,0l0,-8.60153l1.73676,0l0,8.60153zm7.75665,0l-6.05515,0l0,-8.53104l1.73676,0l0,7.08176l4.31839,0l0,1.44928zm7.78,0l-6.54205,0l0,-8.60153l6.37787,0l0,1.45508l-4.64111,0l0,1.90689l4.31839,0l0,1.44928l-4.31839,0l0,2.341l4.8053,0l0,1.44928z"/>
  </g>
  <text stroke="#000" transform="matrix(0.29537612199783325,0,0,0.6513673663139343,265.11473409831524,112.86981515586376) " xml:space="preserve" text-anchor="start" font-family="Helvetica, Arial, sans-serif" font-size="24" id="svg_127" y="318.74828" x="376.25012" stroke-width="0" fill="#000000">contributing.md</text>
 </g>
</svg>