<svg id="color" enable-background="new 0 0 24 24" height="512" viewBox="0 0 24 24" width="512" xmlns="http://www.w3.org/2000/svg"><path d="m21.25 24h-17.5c-1.517 0-2.75-1.233-2.75-2.75v-18.5c0-1.517 1.233-2.75 2.75-2.75h15.5c.414 0 .75.336.75.75v3.25h1.25c.414 0 .75.336.75.75v18.5c0 .414-.336.75-.75.75zm-17.5-22.5c-.689 0-1.25.561-1.25 1.25s.561 1.25 1.25 1.25h14.75v-2.5z" fill="#2196f3"/><path d="m12 1.5h-8.25c-.689 0-1.25.561-1.25 1.25s.561 1.25 1.25 1.25h8.25z" fill="#dedede"/><path d="m12 0h-8.25c-1.517 0-2.75 1.233-2.75 2.75v18.5c0 1.517 1.233 2.75 2.75 2.75h8.25v-20h-8.25c-.689 0-1.25-.561-1.25-1.25s.561-1.25 1.25-1.25h8.25z" fill="#1d83d4"/><g fill="#fafafa"><path d="m8.5 17.25c-.17 0-.34-.057-.48-.174l-3-2.5c-.171-.142-.27-.353-.27-.576s.099-.434.27-.576l3-2.5c.317-.265.791-.224 1.057.096.266.318.223.791-.096 1.056l-2.309 1.924 2.309 1.924c.318.265.361.738.096 1.056-.149.178-.362.27-.577.27z"/><path d="m14.5 17.25c-.215 0-.428-.092-.576-.27-.266-.318-.223-.791.096-1.056l2.308-1.924-2.309-1.924c-.318-.265-.361-.738-.096-1.056.266-.32.737-.361 1.057-.096l3 2.5c.171.143.27.354.27.576 0 .223-.099.434-.27.576l-3 2.5c-.14.117-.31.174-.48.174z"/><path d="m10.294 18.221c-.398-.114-.629-.529-.515-.927l2-7c.113-.397.521-.63.927-.515.398.114.629.529.515.927l-2 7c-.113.397-.525.628-.927.515z"/></g><path d="m6.672 14h-1.922c0 .223.099.434.27.576l3 2.5c.14.117.31.174.48.174.215 0 .428-.092.576-.27.266-.318.223-.791-.096-1.056z" fill="#dadada"/><path d="m18.25 14h-1.922l-2.309 1.924c-.318.265-.361.738-.096 1.056.148.178.361.27.576.27.17 0 .34-.057.48-.174l3-2.5c.172-.142.271-.353.271-.576z" fill="#dadada"/><path d="m12.28 14h-1.56l-.941 3.294c-.114.398.116.813.515.927.069.019.139.029.207.029.328 0 .627-.216.72-.544z" fill="#dadada"/></svg>