<svg id="Capa_1" enable-background="new 0 0 512 512" height="512" viewBox="0 0 512 512" width="512" xmlns="http://www.w3.org/2000/svg"><g><g><g><g><g><g><g><path d="m445.413 436.162h-378.826c-14.359 0-25.999-11.64-25.999-25.999v-272.483c0-14.359 11.64-25.999 25.999-25.999h378.826c14.359 0 25.999 11.64 25.999 25.999v272.483c0 14.359-11.64 25.999-25.999 25.999z" fill="#f5f5f5"/><path d="m445.413 111.682h-40.032c14.359 0 25.999 11.64 25.999 25.999v272.483c0 14.359-11.64 25.999-25.999 25.999h40.032c14.359 0 25.999-11.64 25.999-25.999v-272.484c0-14.358-11.64-25.998-25.999-25.998z" fill="#eaeaea"/><path d="m75.794 356.394v-202.645c0-3.789 3.072-6.861 6.861-6.861h346.69c3.789 0 6.861 3.072 6.861 6.861v202.645c0 3.789-3.072 6.861-6.861 6.861h-346.69c-3.789 0-6.861-3.072-6.861-6.861z" fill="#bed8fb"/><path d="m456.771 458.615h-401.542c-26.36 0-47.729-21.369-47.729-47.729 0-6.862 5.563-12.425 12.425-12.425h472.15c6.862 0 12.425 5.563 12.425 12.425 0 26.36-21.369 47.729-47.729 47.729z" fill="#daeaef"/><path d="m492.075 398.461h-27.605v12.425c0 26.36-21.369 47.729-47.729 47.729h40.03c26.36 0 47.729-21.369 47.729-47.729 0-6.862-5.563-12.425-12.425-12.425z" fill="#c9e2e7"/></g><path d="m176.2 398.461v15.039c0 8.306 6.733 15.039 15.039 15.039h129.522c8.306 0 15.039-6.733 15.039-15.039v-15.039z" fill="#a8d0d5"/></g></g><g><g><g><g><path d="m388.39 59.076c-78.744-20.892-132.39 22.036-132.39 22.036s-53.646-42.928-132.39-22.036c-3.738.992-6.364 4.344-6.364 8.212v221.922c61.653-18.772 108.876 1.99 128.634 13.544 6.26 3.661 13.981 3.661 20.241 0 19.758-11.554 66.981-32.316 128.634-13.544v-221.922c-.001-3.868-2.626-7.22-6.365-8.212z" fill="#fff8e1"/><g><path d="m388.39 59.076c-23.51-6.238-44.783-6.786-63.059-4.487 2.984.37 6.014.827 9.088 1.379 11.792 2.118 20.335 12.455 20.335 24.436v201.54c12.469.734 25.854 2.959 40 7.266v-221.922c0-3.868-2.625-7.22-6.364-8.212z" fill="#fdf3c4"/></g><path d="m216 61.137v228.321c12.894 4.186 23.035 9.294 29.88 13.296 3.13 1.83 6.625 2.745 10.12 2.745v-224.387s-14.698-11.761-40-19.975z" fill="#fdf3c4"/></g></g></g><path d="m245.88 332.145c6.26 3.66 13.981 3.66 20.241 0 18.192-10.638 59.669-29.081 114.254-17.284 4.896 1.058 9.718-2.058 10.689-6.972l3.691-18.679c-61.653-18.772-108.876 1.99-128.634 13.544-6.26 3.661-13.981 3.661-20.241 0-19.758-11.554-66.981-32.316-128.634-13.544l3.691 18.679c.971 4.914 5.793 8.03 10.689 6.972 54.585-11.797 96.062 6.646 114.254 17.284z" fill="#e7a561"/></g></g></g></g><g><path d="m154.534 124.349c36.798-11.205 61.877 8.01 62.979 8.876 3.227 2.563 7.934 2.047 10.521-1.187 2.589-3.234 2.064-7.954-1.17-10.542-1.287-1.03-32.056-25.087-76.698-11.497-3.963 1.207-6.196 5.397-4.99 9.359 1.205 3.964 5.399 6.199 9.358 4.991z"/><path d="m154.534 175.089c36.793-11.203 61.877 8.009 62.979 8.875 3.227 2.563 7.934 2.047 10.521-1.187 2.589-3.234 2.064-7.954-1.17-10.542-1.287-1.03-32.056-25.088-76.698-11.496-3.963 1.207-6.196 5.397-4.99 9.359 1.207 3.963 5.399 6.197 9.358 4.991z"/><path d="m217.513 234.704c3.227 2.563 7.934 2.047 10.521-1.187 2.589-3.234 2.064-7.954-1.17-10.542-1.287-1.03-32.056-25.087-76.698-11.496-3.963 1.207-6.196 5.397-4.99 9.359 1.208 3.963 5.4 6.198 9.359 4.99 36.792-11.203 61.876 8.01 62.978 8.876z"/><path d="m361.835 109.999c-44.641-13.592-75.411 10.466-76.698 11.497-3.225 2.58-3.744 7.271-1.178 10.506 2.571 3.241 7.283 3.774 10.524 1.225 1.05-.825 26.146-20.093 62.982-8.878 3.965 1.208 8.153-1.027 9.359-4.99 1.207-3.963-1.026-8.153-4.989-9.36z"/><path d="m361.835 160.739c-44.638-13.594-75.411 10.465-76.698 11.496-3.225 2.58-3.744 7.271-1.178 10.506 2.571 3.241 7.283 3.774 10.524 1.225 1.05-.825 26.146-20.093 62.982-8.878 3.965 1.207 8.153-1.028 9.359-4.99s-1.026-8.152-4.989-9.359z"/><path d="m361.835 211.479c-44.638-13.594-75.411 10.465-76.698 11.496-3.225 2.58-3.744 7.271-1.178 10.506 2.571 3.241 7.283 3.774 10.524 1.225 1.05-.825 26.146-20.093 62.982-8.878 3.965 1.208 8.153-1.027 9.359-4.99 1.207-3.962-1.026-8.152-4.989-9.359z"/><path d="m492.075 390.961h-13.163v-253.28c0-18.471-15.027-33.499-33.499-33.499h-43.159v-36.894c0-7.238-4.91-13.596-11.94-15.461-42.515-11.28-77.912-4.403-100.12 3.352-16.375 5.718-28.127 12.679-34.194 16.726-6.067-4.047-17.819-11.008-34.193-16.726-22.207-7.755-57.604-14.633-100.12-3.353-7.03 1.865-11.94 8.223-11.94 15.461v36.894h-43.16c-18.472 0-33.499 15.028-33.499 33.499v253.28h-13.163c-10.987.001-19.925 8.939-19.925 19.926 0 30.453 24.775 55.229 55.229 55.229h401.543c30.453 0 55.229-24.776 55.229-55.229-.001-10.987-8.939-19.925-19.926-19.925zm-222.169-81.733c16.349-9.56 59.569-29.503 116.149-14.683l-2.349 11.89c-.157.788-.937 1.27-1.747 1.095-56.287-12.164-99.109 6.144-119.625 18.14-3.906 2.285-8.762 2.285-12.668 0-20.516-11.997-63.334-30.309-119.626-18.141-.798.173-1.587-.297-1.746-1.095l-2.349-11.89c56.58-14.819 99.8 5.122 116.149 14.682 8.594 5.027 19.251 5.008 27.812.002zm-145.16-241.94c0-.451.316-.838.786-.963 30.964-8.214 61.493-7.268 90.74 2.811 16.054 5.532 27.294 12.453 32.228 15.813v210.661c-10.73-6.142-27.758-14.064-49.791-18.362-24.31-4.742-49.143-4.027-73.963 2.114zm-76.658 70.393c0-10.2 8.299-18.499 18.499-18.499h43.159v20.206h-27.091c-7.919 0-14.361 6.442-14.361 14.361v144.703c0 4.142 3.357 7.5 7.5 7.5s7.5-3.358 7.5-7.5v-144.065h26.452v134.823c0 .454.053.899.133 1.338.005.039.002.077.009.116l3.69 18.679c1.781 9.018 10.611 14.8 19.63 12.849 51.329-11.092 90.251 5.531 108.885 16.428 8.578 5.015 19.234 5.015 27.813 0 18.634-10.896 57.563-27.519 108.884-16.428 9.015 1.951 17.849-3.824 19.631-12.849l3.69-18.679c.008-.039.005-.077.009-.116.08-.439.133-.884.133-1.338v-59.298c0-4.142-3.357-7.5-7.5-7.5s-7.5 3.358-7.5 7.5v49.451c-24.817-6.141-49.652-6.857-73.963-2.114-22.033 4.298-39.061 12.22-49.791 18.362v-210.661c4.941-3.365 16.179-10.283 32.228-15.814 29.249-10.079 59.778-11.025 90.74-2.811.47.125.786.512.786.963v127.562c0 4.142 3.357 7.5 7.5 7.5s7.5-3.358 7.5-7.5v-40.462h26.452v201.368h-345.411v-22.242c0-4.142-3.357-7.5-7.5-7.5s-7.5 3.358-7.5 7.5v22.88c0 7.919 6.442 14.361 14.361 14.361h346.689c7.919 0 14.361-6.442 14.361-14.361v-202.646c0-7.919-6.442-14.361-14.361-14.361h-27.091v-20.206h43.159c10.2 0 18.499 8.299 18.499 18.499v253.28h-415.823zm135.612 268.28h144.6v7.539c0 4.157-3.382 7.539-7.539 7.539h-129.522c-4.157 0-7.539-3.382-7.539-7.539zm273.071 45.154h-401.542c-22.182 0-40.229-18.047-40.229-40.229 0-2.716 2.209-4.925 4.925-4.925h148.775v7.539c0 12.428 10.111 22.539 22.539 22.539h129.521c12.428 0 22.539-10.111 22.539-22.539v-7.539h148.775c2.716 0 4.925 2.209 4.925 4.925.001 22.182-18.046 40.229-40.228 40.229z"/></g></g></svg>