<svg height="512pt" viewBox="0 -16 512 512" width="512pt" xmlns="http://www.w3.org/2000/svg"><path d="m48 392v80c-22.078125 0-40-17.921875-40-40s17.921875-40 40-40zm0 0" fill="#d7e9ff"/><path d="m504 48v304c0-22.078125-17.921875-40-40-40v-304c22.078125 0 40 17.921875 40 40zm0 0" fill="#d7e9ff"/><path d="m216 152v40h-48v-56h32c8.878906 0 16 7.121094 16 16zm0 0" fill="#94c1ff"/><path d="m168 144v48h-80v-64c0-8.878906 7.121094-16 16-16h48c8.878906 0 16 7.121094 16 16zm0 0" fill="#94c1ff"/><path d="m216 192v-40c0-8.878906-7.121094-16-16-16h-32v-8c0-8.878906-7.121094-16-16-16h-48c-8.878906 0-16 7.121094-16 16v64zm248 120c22.078125 0 40 17.921875 40 40s-17.921875 40-40 40h-416c-22.078125 0-40 17.921875-40 40v-336c0-22.078125 17.921875-40 40-40h416zm0 0" fill="#d7e9ff"/><g fill="#116fff"><path d="m464 400h-416c-4.425781 0-8-3.574219-8-8s3.574219-8 8-8h416c4.425781 0 8 3.574219 8 8s-3.574219 8-8 8zm0 0"/><path d="m456 64h-408c-4.425781 0-8-3.585938-8-8s3.574219-8 8-8h408c4.425781 0 8 3.585938 8 8s-3.574219 8-8 8zm0 0"/><path d="m504 56c-4.425781 0-8-3.585938-8-8 0-17.648438-14.351562-32-32-32-4.425781 0-8-3.585938-8-8s3.574219-8 8-8c26.472656 0 48 21.527344 48 48 0 4.414062-3.574219 8-8 8zm0 0"/><path d="m464 400c-4.425781 0-8-3.574219-8-8s3.574219-8 8-8c17.648438 0 32-14.351562 32-32s-14.351562-32-32-32c-4.425781 0-8-3.574219-8-8s3.574219-8 8-8c26.472656 0 48 21.527344 48 48s-21.527344 48-48 48zm0 0"/><path d="m464 320c-4.425781 0-8-3.574219-8-8v-304c0-4.414062 3.574219-8 8-8s8 3.585938 8 8v304c0 4.425781-3.574219 8-8 8zm0 0"/><path d="m504 360c-4.425781 0-8-3.574219-8-8v-304c0-4.414062 3.574219-8 8-8s8 3.585938 8 8v304c0 4.425781-3.574219 8-8 8zm0 0"/><path d="m8 104c-4.425781 0-8-3.585938-8-8 0-26.472656 21.527344-48 48-48 4.425781 0 8 3.585938 8 8s-3.574219 8-8 8c-17.648438 0-32 14.351562-32 32 0 4.414062-3.574219 8-8 8zm0 0"/><path d="m48 480c-26.472656 0-48-21.527344-48-48s21.527344-48 48-48c4.425781 0 8 3.574219 8 8s-3.574219 8-8 8c-17.648438 0-32 14.351562-32 32s14.351562 32 32 32c4.425781 0 8 3.574219 8 8s-3.574219 8-8 8zm0 0"/><path d="m8 440c-4.425781 0-8-3.574219-8-8v-336c0-4.414062 3.574219-8 8-8s8 3.585938 8 8v336c0 4.425781-3.574219 8-8 8zm0 0"/><path d="m48 480c-4.425781 0-8-3.574219-8-8v-80c0-4.425781 3.574219-8 8-8s8 3.574219 8 8v80c0 4.425781-3.574219 8-8 8zm0 0"/><path d="m56.007812 344c-.703124 0-1.40625-.089844-2.113281-.28125-4.261719-1.167969-6.78125-5.558594-5.613281-9.824219 1.519531-5.589843 3.277344-10.972656 5.214844-15.992187 1.582031-4.132813 6.230468-6.167969 10.335937-4.582032 4.128907 1.582032 6.175781 6.214844 4.582031 10.335938-1.734374 4.511719-3.316406 9.382812-4.703124 14.449219-.957032 3.558593-4.191407 5.894531-7.703126 5.894531zm0 0"/><path d="m75.078125 302.425781c-1.636719 0-3.292969-.503906-4.71875-1.546875-3.558594-2.605468-4.335937-7.613281-1.726563-11.175781 6.535157-8.933594 14.367188-16.558594 23.261719-22.65625 3.65625-2.511719 8.625-1.574219 11.121094 2.074219 2.503906 3.640625 1.578125 8.621094-2.070313 11.125-7.402343 5.074218-13.929687 11.441406-19.410156 18.914062-1.558594 2.128906-3.992187 3.265625-6.457031 3.265625zm48.28125-33.609375c-3.414063 0-6.566406-2.191406-7.640625-5.617187-1.3125-4.214844 1.042969-8.703125 5.257812-10.023438 9.222657-2.871093 19.304688-4.894531 30.824219-6.191406 4.335938-.503906 8.351563 2.664063 8.839844 7.054687.496094 4.394532-2.671875 8.34375-7.066406 8.839844-10.496094 1.175782-19.589844 3-27.832031 5.570313-.796876.246093-1.589844.367187-2.382813.367187zm127.785156-6.335937c-2.914062 0-5.832031-.023438-8.761719-.066407-4.414062-.0625-7.949218-3.6875-7.886718-8.109374.0625-4.382813 3.632812-7.890626 8-7.890626h.113281c10.597656.152344 20.75.019532 29.414063-.4375 4.34375-.304687 8.175781 3.144532 8.425781 7.558594.230469 4.417969-3.160157 8.175782-7.5625 8.425782-6.648438.34375-13.75.519531-21.742188.519531zm-38.59375-.800781c-.078125 0-.152343 0-.214843 0-8.230469-.214844-16.441407-.40625-24.527344-.40625l-5.144532.023437c-4.191406.277344-8.023437-3.503906-8.070312-7.929687-.042969-4.414063 3.503906-8.03125 7.925781-8.070313l5.28125-.023437c8.230469 0 16.574219.183593 24.953125.40625 4.414063.113281 7.902344 3.792968 7.789063 8.207031-.109375 4.34375-3.679688 7.792969-7.992188 7.792969zm89.617188-3.175782c-3.761719 0-7.113281-2.65625-7.839844-6.488281-.839844-4.335937 2-8.535156 6.335937-9.367187 10.046876-1.9375 18.824219-4.625 26.824219-8.191407 4.054688-1.816406 8.777344.007813 10.566407 4.039063 1.808593 4.03125-.007813 8.769531-4.039063 10.566406-9.136719 4.089844-19.046875 7.128906-30.320313 9.296875-.511718.105469-1.023437.144531-1.527343.144531zm53.695312-24.816406c-2.199219 0-4.398437-.902344-5.976562-2.679688-2.933594-3.304687-2.640625-8.359374.65625-11.296874 6.632812-5.894532 12.511719-13.015626 17.503906-21.167969 2.304687-3.773438 7.226563-4.957031 11-2.65625 3.777344 2.304687 4.960937 7.226562 2.65625 11-5.816406 9.503906-12.710937 17.832031-20.511719 24.777343-1.535156 1.351563-3.429687 2.023438-5.328125 2.023438zm0 0"/><path d="m387.488281 183.359375c-.855469 0-1.734375-.144531-2.601562-.4375-4.167969-1.433594-6.398438-5.984375-4.964844-10.167969 1.589844-4.632812 3.046875-9.578125 4.316406-14.699218 1.066407-4.292969 5.425781-6.925782 9.707031-5.832032 4.277344 1.066406 6.886719 5.410156 5.832032 9.699219-1.394532 5.566406-2.976563 10.957031-4.714844 16.023437-1.152344 3.328126-4.253906 5.414063-7.574219 5.414063zm0 0"/><path d="m408 136c-2.046875 0-4.097656-.785156-5.65625-2.34375l-24-24c-3.128906-3.128906-3.128906-8.183594 0-11.3125s8.183594-3.128906 11.3125 0l24 24c3.128906 3.128906 3.128906 8.183594 0 11.3125-1.558594 1.558594-3.609375 2.34375-5.65625 2.34375zm0 0"/><path d="m384 136c-2.046875 0-4.097656-.785156-5.65625-2.34375-3.128906-3.128906-3.128906-8.183594 0-11.3125l24-24c3.128906-3.128906 8.183594-3.128906 11.3125 0s3.128906 8.183594 0 11.3125l-24 24c-1.558594 1.558594-3.609375 2.34375-5.65625 2.34375zm0 0"/><path d="m88 200c-4.425781 0-8-3.585938-8-8v-64c0-4.414062 3.574219-8 8-8s8 3.585938 8 8v64c0 4.414062-3.574219 8-8 8zm0 0"/><path d="m152 120h-48c-4.425781 0-8-3.585938-8-8s3.574219-8 8-8h48c4.425781 0 8 3.585938 8 8s-3.574219 8-8 8zm0 0"/><path d="m168 200c-4.425781 0-8-3.585938-8-8v-64c0-4.414062 3.574219-8 8-8s8 3.585938 8 8v64c0 4.414062-3.574219 8-8 8zm0 0"/><path d="m88 136c-4.425781 0-8-3.585938-8-8 0-13.230469 10.769531-24 24-24 4.425781 0 8 3.585938 8 8s-3.574219 8-8 8c-4.414062 0-8 3.59375-8 8 0 4.414062-3.574219 8-8 8zm0 0"/><path d="m168 136c-4.425781 0-8-3.585938-8-8 0-4.40625-3.585938-8-8-8-4.425781 0-8-3.585938-8-8s3.574219-8 8-8c13.230469 0 24 10.769531 24 24 0 4.414062-3.574219 8-8 8zm0 0"/><path d="m168 200c-4.425781 0-8-3.585938-8-8v-48c0-4.414062 3.574219-8 8-8s8 3.585938 8 8v48c0 4.414062-3.574219 8-8 8zm0 0"/><path d="m200 144h-32c-4.425781 0-8-3.585938-8-8s3.574219-8 8-8h32c4.425781 0 8 3.585938 8 8s-3.574219 8-8 8zm0 0"/><path d="m216 200c-4.425781 0-8-3.585938-8-8v-40c0-4.414062 3.574219-8 8-8s8 3.585938 8 8v40c0 4.414062-3.574219 8-8 8zm0 0"/><path d="m216 160c-4.425781 0-8-3.585938-8-8 0-4.40625-3.585938-8-8-8-4.425781 0-8-3.585938-8-8s3.574219-8 8-8c13.230469 0 24 10.769531 24 24 0 4.414062-3.574219 8-8 8zm0 0"/><path d="m120 136c-4.425781 0-8-3.585938-8-8v-16c0-4.414062 3.574219-8 8-8s8 3.585938 8 8v16c0 4.414062-3.574219 8-8 8zm0 0"/><path d="m224 200h-144c-4.425781 0-8-3.585938-8-8s3.574219-8 8-8h144c4.425781 0 8 3.585938 8 8s-3.574219 8-8 8zm0 0"/><path d="m336 368c-4.425781 0-8-3.574219-8-8v-72c0-4.425781 3.574219-8 8-8s8 3.574219 8 8v72c0 4.425781-3.574219 8-8 8zm0 0"/><path d="m320 328c-8.824219 0-16-7.175781-16-16 0-4.425781 3.574219-8 8-8s8 3.574219 8 8v.015625c4.425781 0 8 3.570313 8 7.992187 0 4.417969-3.574219 7.992188-8 7.992188zm0 0"/><path d="m312 320c-4.425781 0-8-3.574219-8-8v-16c0-4.425781 3.574219-8 8-8s8 3.574219 8 8v16c0 4.425781-3.574219 8-8 8zm0 0"/><path d="m336 328h-16c-4.425781 0-8-3.574219-8-8s3.574219-8 8-8h16c4.425781 0 8 3.574219 8 8s-3.574219 8-8 8zm0 0"/><path d="m400 344c-8.824219 0-16-7.175781-16-16 0-4.425781 3.574219-8 8-8s8 3.574219 8 8v.015625c4.425781 0 8 3.570313 8 7.992187 0 4.417969-3.574219 7.992188-8 7.992188zm0 0"/><path d="m392 336c-4.425781 0-8-3.574219-8-8v-16c0-4.425781 3.574219-8 8-8s8 3.574219 8 8v16c0 4.425781-3.574219 8-8 8zm0 0"/><path d="m416 344h-16c-4.425781 0-8-3.574219-8-8s3.574219-8 8-8h16c4.425781 0 8 3.574219 8 8s-3.574219 8-8 8zm0 0"/><path d="m352 352c-4.425781 0-8-3.574219-8-8s3.574219-8 8-8c0-4.425781 3.574219-8 8-8s8 3.574219 8 8c0 8.824219-7.175781 16-16 16zm0 0"/><path d="m360 344c-4.425781 0-8-3.574219-8-8v-24c0-4.425781 3.574219-8 8-8s8 3.574219 8 8v24c0 4.425781-3.574219 8-8 8zm0 0"/><path d="m352 352h-16c-4.425781 0-8-3.574219-8-8s3.574219-8 8-8h16c4.425781 0 8 3.574219 8 8s-3.574219 8-8 8zm0 0"/><path d="m416 368c-4.425781 0-8-3.574219-8-8v-56c0-4.425781 3.574219-8 8-8s8 3.574219 8 8v56c0 4.425781-3.574219 8-8 8zm0 0"/></g></svg>